<?xml version="1.0" encoding="UTF-8"?>
<svg version="1.1" xmlns="http://www.w3.org/2000/svg" width="500" height="500">
<path d="M0 0 C0.99 0.99 0.99 0.99 2 2 C1.80688882 4.8966677 0.97235629 6.03210237 -0.9375 8.25 C-3 10 -3 10 -5 10 C-5.495 11.485 -5.495 11.485 -6 13 C-12.67645718 17.26304155 -20.16724446 16.267077 -27.8125 16.0625 C-45.64169758 15.65193053 -60.55523291 17.88691745 -74.31640625 30.046875 C-84.44276382 40.25890395 -89.28542678 53.75839407 -89.31689453 67.98706055 C-89.09935945 79.12297667 -85.00070486 90.99929514 -77 99 C-77.375 101.125 -77.375 101.125 -78 103 C-83.07201786 103.02471188 -88.14400071 103.04286564 -93.21606445 103.05493164 C-94.9416566 103.05996158 -96.66724448 103.06678626 -98.39282227 103.07543945 C-100.8725693 103.08756361 -103.35226 103.09324169 -105.83203125 103.09765625 C-106.98998955 103.10539818 -106.98998955 103.10539818 -108.17134094 103.11329651 C-111.3830228 103.11363318 -113.93020266 103.02326578 -117 102 C-117 101.34 -117 100.68 -117 100 C-117.66 100 -118.32 100 -119 100 C-119 99.34 -119 98.68 -119 98 C-119.66 98 -120.32 98 -121 98 C-123.3387011 91.55205573 -124.65697059 86.73834707 -123 80 C-121.82280261 77.50794907 -120.50153091 75.32495109 -119 73 C-118.34 73 -117.68 73 -117 73 C-117 72.34 -117 71.68 -117 71 C-116.34 71 -115.68 71 -115 71 C-115.03480469 70.2471875 -115.06960937 69.494375 -115.10546875 68.71875 C-115.64802553 47.42985525 -109.3091108 27.93799381 -95 12 C-69.31476776 -14.06357445 -31.28260006 -18.45565159 0 0 Z " fill="#8852F3" transform="translate(290,115)"/>
<path d="M0 0 C5.23274388 -0.02467917 10.46545403 -0.04285003 15.69824219 -0.05493164 C17.47917267 -0.05996711 19.260099 -0.06679581 21.04101562 -0.07543945 C23.59766665 -0.08753942 26.15426312 -0.09323609 28.7109375 -0.09765625 C29.50994476 -0.10281754 30.30895203 -0.10797882 31.13217163 -0.11329651 C36.77225659 -0.11387171 36.77225659 -0.11387171 39 1 C39 1.66 39 2.32 39 3 C39.66 3 40.32 3 41 3 C41 3.66 41 4.32 41 5 C41.66 5 42.32 5 43 5 C45.91769377 11.30221854 46.70048114 16.18666283 45 23 C43.37486237 25.97941899 41.93172316 28.17374688 39.40185547 30.41723633 C36.92268191 33.21634503 37.35014802 37.09573523 37.125 40.6875 C35.37712182 61.08393861 27.55443184 77.61529914 13 92 C12.34257812 92.66773438 11.68515625 93.33546875 11.0078125 94.0234375 C1.75832334 102.79655812 -9.781685 107.91931374 -22 111 C-22.91664429 111.26151855 -22.91664429 111.26151855 -23.85180664 111.52832031 C-43.22040988 115.78109238 -62.17070436 110.23147804 -79 101 C-78.67 99.35 -78.34 97.7 -78 96 C-77.34 96 -76.68 96 -76 96 C-75.73678955 95.39583252 -75.4735791 94.79166504 -75.20239258 94.16918945 C-73.07051272 90.32314833 -70.04069592 88.58358788 -66 87 C-61.26828499 86.31380998 -56.58780791 86.3002619 -51.8125 86.3125 C-32.61662737 86.1825956 -16.56706308 84.52138419 -2.18359375 70.4921875 C6.39323456 60.70324928 12.0953076 46.43272912 11.31640625 33.19140625 C9.98776508 23.98933596 7.40761274 11.91271961 0.25 5.41015625 C-0.1625 4.94480469 -0.575 4.47945312 -1 4 C-0.578125 1.91186523 -0.578125 1.91186523 0 0 Z " fill="#2595F0" transform="translate(288,146)"/>
<path d="M0 0 C0.85896378 -0.0099852 1.71792755 -0.0199704 2.60292053 -0.03025818 C4.41060604 -0.04537293 6.21837441 -0.05248604 8.02612305 -0.05200195 C10.77468924 -0.05856874 13.51964893 -0.11312921 16.26757812 -0.16992188 C18.03253986 -0.178725 19.79751857 -0.18467851 21.5625 -0.1875 C22.78005226 -0.21983482 22.78005226 -0.21983482 24.02220154 -0.25282288 C29.70192265 -0.18540899 32.90135567 1.39540378 37.32643127 4.92274475 C38.84765625 6.50390625 38.84765625 6.50390625 39.84765625 9.50390625 C40.50765625 9.50390625 41.16765625 9.50390625 41.84765625 9.50390625 C44.15992528 15.01848437 44.14703869 20.069011 44.09765625 25.94140625 C44.10925781 27.31522461 44.10925781 27.31522461 44.12109375 28.71679688 C44.1058182 34.03650776 43.59160849 38.47274246 41.84765625 43.50390625 C41.18765625 43.50390625 40.52765625 43.50390625 39.84765625 43.50390625 C39.62078125 44.08140625 39.39390625 44.65890625 39.16015625 45.25390625 C36.93716757 49.06474399 33.98976633 51.12320289 29.84765625 52.50390625 C26.99199562 52.63714223 24.16160823 52.7162134 21.3046875 52.7421875 C20.46225998 52.75025925 19.61983246 52.75833099 18.75187683 52.76664734 C16.96733652 52.78047603 15.1827699 52.79120362 13.39819336 52.79907227 C11.58170774 52.81057209 9.76525539 52.83099221 7.94897461 52.8605957 C5.31731314 52.9034863 2.6866561 52.91947255 0.0546875 52.9296875 C-0.74768845 52.94719559 -1.55006439 52.96470367 -2.37675476 52.98274231 C-7.92138475 52.9616901 -12.64684676 51.91265588 -17.15234375 48.50390625 C-17.64734375 47.01890625 -17.64734375 47.01890625 -18.15234375 45.50390625 C-18.81234375 45.50390625 -19.47234375 45.50390625 -20.15234375 45.50390625 C-22.75419925 39.00074416 -23.59759736 33.35643605 -23.46484375 26.37890625 C-23.46806641 25.52425781 -23.47128906 24.66960937 -23.47460938 23.7890625 C-23.41847368 17.144638 -22.75648891 11.88720763 -18.96484375 6.25390625 C-13.28723387 0.70246548 -7.59913432 0.03117695 0 0 Z M-9.07788086 13.90820312 C-11.72527187 17.83988857 -11.41063649 21.72324457 -11.46484375 26.31640625 C-11.49384766 27.12400391 -11.52285156 27.93160156 -11.55273438 28.76367188 C-11.56111328 29.55064453 -11.56949219 30.33761719 -11.578125 31.1484375 C-11.59270752 31.86362549 -11.60729004 32.57881348 -11.62231445 33.31567383 C-10.90715857 36.64551393 -9.64477487 38.19688103 -7.15234375 40.50390625 C-4.39359572 41.01446441 -2.25557373 41.20739546 0.5 41.16796875 C1.23714737 41.17275238 1.97429474 41.17753601 2.73377991 41.1824646 C4.28958271 41.18586004 5.8454572 41.17668202 7.40112305 41.15576172 C9.77490524 41.12902172 12.14394403 41.15549373 14.51757812 41.1875 C16.03256247 41.18419508 17.54754387 41.17778713 19.0625 41.16796875 C19.76785385 41.1780899 20.4732077 41.18821106 21.19993591 41.19863892 C25.01287438 41.10859782 26.74572768 40.58261551 29.79492188 38.22802734 C31.82187204 35.53812369 32.47997443 34.52936184 32.4765625 31.25390625 C32.47849609 30.48046875 32.48042969 29.70703125 32.48242188 28.91015625 C32.44665039 27.7190625 32.44665039 27.7190625 32.41015625 26.50390625 C32.4265918 25.3128125 32.4265918 25.3128125 32.44335938 24.09765625 C32.39585254 20.29710982 32.2193816 18.16291679 30.30859375 14.77539062 C26.99260019 11.71467594 24.19938382 11.81446002 19.90625 11.91015625 C18.76011986 11.91009583 18.76011986 11.91009583 17.59083557 11.91003418 C15.97949982 11.91538441 14.36816431 11.93294641 12.75708008 11.96191406 C10.28971781 12.00382876 7.82508066 12.00297772 5.35742188 11.99609375 C3.79034561 12.00658477 2.2232834 12.01952242 0.65625 12.03515625 C-0.0813002 12.03535767 -0.8188504 12.03555908 -1.57875061 12.0357666 C-5.59115032 12.11232753 -5.59115032 12.11232753 -9.07788086 13.90820312 Z " fill="#C9C8CC" transform="translate(104.15234375,290.49609375)"/>
<path d="M0 0 C0.495 1.485 0.495 1.485 1 3 C-0.62339805 4.70884005 -2.29319053 6.37446717 -4 8 C-4.66 8 -5.32 8 -6 8 C-6.33 8.99 -6.66 9.98 -7 11 C-13.67645718 15.26304155 -21.16724446 14.267077 -28.8125 14.0625 C-46.64169758 13.65193053 -61.55523291 15.88691745 -75.31640625 28.046875 C-85.44276382 38.25890395 -90.28542678 51.75839407 -90.31689453 65.98706055 C-90.09935945 77.12297667 -86.00070486 88.99929514 -78 97 C-78.375 99.125 -78.375 99.125 -79 101 C-84.07201786 101.02471188 -89.14400071 101.04286564 -94.21606445 101.05493164 C-95.9416566 101.05996158 -97.66724448 101.06678626 -99.39282227 101.07543945 C-101.8725693 101.08756361 -104.35226 101.09324169 -106.83203125 101.09765625 C-107.98998955 101.10539818 -107.98998955 101.10539818 -109.17134094 101.11329651 C-112.3830228 101.11363318 -114.93020266 101.02326578 -118 100 C-118 99.34 -118 98.68 -118 98 C-118.66 98 -119.32 98 -120 98 C-120 97.34 -120 96.68 -120 96 C-120.66 96 -121.32 96 -122 96 C-124.3387011 89.55205573 -125.65697059 84.73834707 -124 78 C-122.82280261 75.50794907 -121.50153091 73.32495109 -120 71 C-119.34 71 -118.68 71 -118 71 C-118 70.34 -118 69.68 -118 69 C-117.34 69 -116.68 69 -116 69 C-116.03480469 68.2471875 -116.06960937 67.494375 -116.10546875 66.71875 C-116.40278773 55.05251945 -114.31682159 44.1618257 -111 33 C-109.68 33.66 -108.36 34.32 -107 35 C-107.350625 35.94875 -107.70125 36.8975 -108.0625 37.875 C-109.35026777 40.87060172 -109.35026777 40.87060172 -108 43 C-109.485 43.495 -109.485 43.495 -111 44 C-111 44.99 -111 45.98 -111 47 C-111.31421071 49.00309329 -111.6451046 51.00371336 -112 53 C-111.34 53 -110.68 53 -110 53 C-110 52.34 -110 51.68 -110 51 C-103.6 48.78461538 -103.6 48.78461538 -100.5625 49.875 C-100.046875 50.24625 -99.53125 50.6175 -99 51 C-98.67 50.01 -98.34 49.02 -98 48 C-97.34 48 -96.68 48 -96 48 C-96 47.34 -96 46.68 -96 46 C-95.01 45.505 -95.01 45.505 -94 45 C-93.67 44.34 -93.34 43.68 -93 43 C-91.5625 41.375 -91.5625 41.375 -90 40 C-89.34 40 -88.68 40 -88 40 C-87.855625 39.38125 -87.71125 38.7625 -87.5625 38.125 C-87 36 -87 36 -86 34 C-85.34 34 -84.68 34 -84 34 C-83.731875 32.88625 -83.46375 31.7725 -83.1875 30.625 C-82 27 -82 27 -79 25 C-78.37222656 24.86078125 -77.74445313 24.7215625 -77.09765625 24.578125 C-74.37817085 23.82862064 -72.68203322 22.45096422 -70.4375 20.75 C-61.10450735 14.04018576 -52.53724671 10.77595534 -41.06640625 11.0078125 C-39.51498048 11.02532755 -37.96354777 11.04223595 -36.41210938 11.05859375 C-33.9850721 11.08953019 -31.55838716 11.12507848 -29.1315918 11.17138672 C-26.77648623 11.21390714 -24.42179217 11.23721214 -22.06640625 11.2578125 C-20.98801231 11.28574387 -20.98801231 11.28574387 -19.88783264 11.3142395 C-13.98344522 11.34405152 -9.98644012 9.93126123 -5.75 5.8125 C-5.1725 5.214375 -4.595 4.61625 -4 4 C-3.34 4 -2.68 4 -2 4 C-2 3.34 -2 2.68 -2 2 C-1.34 2 -0.68 2 0 2 C0 1.34 0 0.68 0 0 Z " fill="#5148E4" transform="translate(291,117)"/>
<path d="M0 0 C6.01397009 -0.07432654 12.02767096 -0.12868588 18.04199219 -0.16479492 C20.08663594 -0.17985288 22.13124755 -0.20030357 24.17578125 -0.22631836 C27.11987252 -0.26283311 30.06353557 -0.27975651 33.0078125 -0.29296875 C33.9174173 -0.30845261 34.82702209 -0.32393646 35.76419067 -0.33988953 C40.96231958 -0.34125843 44.45849625 0.16727788 49 3 C49 3.66 49 4.32 49 5 C49.66 5 50.32 5 51 5 C54.9495711 8.9495711 55.389155 12.40103862 55.625 17.9375 C55.49887886 22.54092144 55.28353791 25.57560666 52.25 29.125 C51.19314924 30.11246157 50.10780015 31.07005768 49 32 C47.65955571 33.32618425 46.32466622 34.65805553 45 36 C45.5775 36.55429687 46.155 37.10859375 46.75 37.6796875 C47.4925 38.40414062 48.235 39.12859375 49 39.875 C49.7425 40.59429687 50.485 41.31359375 51.25 42.0546875 C53 44 53 44 53 46 C53.66 46 54.32 46 55 46 C55 46.66 55 47.32 55 48 C55.66 48 56.32 48 57 48 C57.495 49.98 57.495 49.98 58 52 C55.60225255 52.13572155 53.21224755 52.23436868 50.8125 52.3125 C49.80219727 52.3753418 49.80219727 52.3753418 48.77148438 52.43945312 C44.80932438 52.53609117 43.23163143 52.19408677 40.15625 49.6171875 C39.08890625 48.32167969 39.08890625 48.32167969 38 47 C37.236875 46.278125 36.47375 45.55625 35.6875 44.8125 C34 43 34 43 34 41 C33.01 40.67 32.02 40.34 31 40 C30.34 39.01 29.68 38.02 29 37 C26.06402461 36.61615491 23.31972627 36.396157 20.375 36.3125 C19.57320312 36.27833984 18.77140625 36.24417969 17.9453125 36.20898438 C15.96403682 36.12643122 13.98203963 36.06154084 12 36 C12 41.28 12 46.56 12 52 C8.04 52 4.08 52 0 52 C-0.05393279 48.41646559 -0.09364225 44.83374244 -0.125 41.25 C-0.14175781 40.23421875 -0.15851563 39.2184375 -0.17578125 38.171875 C-0.18222656 37.1921875 -0.18867188 36.2125 -0.1953125 35.203125 C-0.20578613 34.30239258 -0.21625977 33.40166016 -0.22705078 32.47363281 C0.01895819 29.7934576 0.53342584 28.24586305 2 26 C5.68847098 23.54101935 8.57092875 23.66963269 12.84375 23.62109375 C13.99200256 23.59560204 13.99200256 23.59560204 15.16345215 23.56959534 C17.6088843 23.51648592 20.0543005 23.47618713 22.5 23.4375 C24.94561205 23.393528 27.39109475 23.34677463 29.83654785 23.29469299 C31.35785204 23.2628207 32.87926989 23.23590435 34.40075684 23.21446228 C37.52093985 23.15353329 40.01821526 22.99392825 43 22 C42.87625 20.700625 42.7525 19.40125 42.625 18.0625 C42.52058594 16.96615234 42.52058594 16.96615234 42.4140625 15.84765625 C42.20910156 14.93306641 42.20910156 14.93306641 42 14 C38.61947726 12.30973863 34.77739858 12.75555041 31.0546875 12.68359375 C29.72716965 12.6524221 29.72716965 12.6524221 28.37283325 12.62062073 C25.54030259 12.55513402 22.70767775 12.49624438 19.875 12.4375 C17.95702143 12.39431394 16.03905246 12.35069963 14.12109375 12.30664062 C9.41415949 12.19945353 4.70713033 12.0981836 0 12 C0 8.04 0 4.08 0 0 Z " fill="#D3D3D7" transform="translate(162,291)"/>
<path d="M0 0 C12.54 0 25.08 0 38 0 C38 0.66 38 1.32 38 2 C38.66 2 39.32 2 40 2 C40 2.66 40 3.32 40 4 C40.66 4 41.32 4 42 4 C44.85369412 10.1639793 45.91030626 15.34002518 44 22 C41.29013018 26.75802725 37.98829663 30.11736746 33.9375 33.6875 C28.51801645 38.56426429 23.33610962 43.60546641 18.2421875 48.8203125 C16 51 16 51 13 53 C11.98493305 49.95479914 11.84694309 47.779914 11.7890625 44.58984375 C11.76070313 43.51669922 11.73234375 42.44355469 11.703125 41.33789062 C11.65167342 39.09846075 11.60722366 36.85885734 11.5703125 34.61914062 C11.18314058 21.07618955 6.61247627 11.57183348 0 0 Z " fill="#4D8BFA" transform="translate(289,147)"/>
<path d="M0 0 C2.98087575 2.45094228 4.86351998 4.79527998 7 8 C7 8.99 7 9.98 7 11 C7.66 11 8.32 11 9 11 C9.60585938 12.11375 10.21171875 13.2275 10.8359375 14.375 C15.57861949 23.03364044 20.45988451 31.54945725 25.77490234 39.87109375 C31 48.06028566 31 48.06028566 31 52 C26.39139615 52.96160977 22.57827123 53.21983417 18 52 C14.51297188 48.24002559 12.48538807 43.9983071 10.2421875 39.41943359 C7.8844431 34.82720737 5.12587156 30.46630865 2.4375 26.0625 C1.39303548 24.32511709 0.34994166 22.58690898 -0.69140625 20.84765625 C-1.13685791 20.10523682 -1.58230957 19.36281738 -2.04125977 18.59790039 C-2.51583618 17.8069397 -2.51583618 17.8069397 -3 17 C-6.4684887 21.07308765 -9.09427161 25.38474529 -11.75 30 C-12.41068481 31.11362915 -12.41068481 31.11362915 -13.0847168 32.24975586 C-15.17701528 35.78261606 -17.18405106 39.30696049 -18.97265625 43.00390625 C-20.67171205 46.37196591 -22.30536751 49.30077699 -25 52 C-29.52472019 53.06464004 -33.44872971 52.81173571 -38 52 C-37.44702629 47.00383402 -35.11937202 43.39300781 -32.5625 39.1875 C-32.11874023 38.44483887 -31.67498047 37.70217773 -31.21777344 36.93701172 C-27.72285475 31.11584165 -24.12031432 25.36264511 -20.48413086 19.62890625 C-17.51674693 14.92173619 -14.83847302 10.11816835 -12.3515625 5.13671875 C-9.1873369 0.13431585 -5.77586862 -0.81064823 0 0 Z " fill="#DAD9DD" transform="translate(400,291)"/>
<path d="M0 0 C10.11162024 -1.31890699 10.11162024 -1.31890699 15 0 C18.9234709 3.11118981 21.57898367 6.63036077 24 11 C24 11.66 24 12.32 24 13 C24.66 13 25.32 13 26 13 C26.33 14.32 26.66 15.64 27 17 C28.32 17 29.64 17 31 17 C31.33 16.34 31.66 15.68 32 15 C32.66 15 33.32 15 34 15 C34.2578125 14.43539063 34.515625 13.87078125 34.78125 13.2890625 C36.13276986 10.75063096 37.7189739 8.6314695 39.5 6.375 C40.41265625 5.21097656 40.41265625 5.21097656 41.34375 4.0234375 C43 2 43 2 45 0 C48.2578125 -0.1953125 48.2578125 -0.1953125 52.125 -0.125 C54.04699219 -0.09792969 54.04699219 -0.09792969 56.0078125 -0.0703125 C57.48894531 -0.03550781 57.48894531 -0.03550781 59 0 C57.60759286 4.06787008 55.70721477 6.8521448 52.9375 10.125 C52.14085937 11.07632812 51.34421875 12.02765625 50.5234375 13.0078125 C49.69070313 13.99523437 48.85796875 14.98265625 48 16 C46.350395 17.99689026 44.70440297 19.9967721 43.0625 22 C42.33160156 22.886875 41.60070312 23.77375 40.84765625 24.6875 C38.89854558 27.05900021 38.89854558 27.05900021 37 30 C36.34 30 35.68 30 35 30 C35 37.26 35 44.52 35 52 C31.37 52 27.74 52 24 52 C23.95101562 50.45828125 23.90203125 48.9165625 23.8515625 47.328125 C23.77652326 45.30206544 23.70097592 43.27602465 23.625 41.25 C23.5940625 40.23421875 23.563125 39.2184375 23.53125 38.171875 C23.49257812 37.1921875 23.45390625 36.2125 23.4140625 35.203125 C23.36693115 33.85202637 23.36693115 33.85202637 23.31884766 32.47363281 C22.98862744 29.91177125 22.29048327 28.21872563 21 26 C20.34 26 19.68 26 19 26 C17.2734375 24.1015625 17.2734375 24.1015625 15.375 21.625 C14.74335938 20.81289063 14.11171875 20.00078125 13.4609375 19.1640625 C12 17 12 17 12 15 C11.34 15 10.68 15 10 15 C8.125 12.98828125 8.125 12.98828125 6 10.3125 C5.29875 9.44238281 4.5975 8.57226562 3.875 7.67578125 C2.10977574 5.15665913 1.00130982 2.8944112 0 0 Z " fill="#CFCFD2" transform="translate(223,291)"/>
<path d="M0 0 C0.86133545 -0.00761353 1.7226709 -0.01522705 2.61010742 -0.02307129 C4.42200842 -0.03382417 6.23397116 -0.03674508 8.04589844 -0.03222656 C10.80509276 -0.03125261 13.56151766 -0.07296029 16.3203125 -0.1171875 C18.08853592 -0.12239428 19.85676892 -0.1250827 21.625 -0.125 C22.44186279 -0.14139526 23.25872559 -0.15779053 24.1003418 -0.17468262 C30.17602278 -0.10198593 33.2340385 1.45435917 37.8125 5.46875 C38.71699521 8.43032576 38.18581595 10.32222983 37.8125 13.46875 C35.8325 13.46875 33.8525 13.46875 31.8125 13.46875 C31.8125 14.12875 31.8125 14.78875 31.8125 15.46875 C31.32749023 15.14277832 30.84248047 14.81680664 30.34277344 14.48095703 C26.71156289 13.02833266 23.17720959 13.22305938 19.328125 13.2734375 C18.51253113 13.2762674 17.69693726 13.27909729 16.85662842 13.28201294 C14.25843472 13.29318442 11.66058905 13.31828325 9.0625 13.34375 C7.29818207 13.35378373 5.53385872 13.36290889 3.76953125 13.37109375 C-0.54961273 13.39311381 -4.86849741 13.42762267 -9.1875 13.46875 C-9.5175 14.45875 -9.8475 15.44875 -10.1875 16.46875 C-10.8475 16.46875 -11.5075 16.46875 -12.1875 16.46875 C-12.1875 22.40875 -12.1875 28.34875 -12.1875 34.46875 C-13.6725 34.96375 -13.6725 34.96375 -15.1875 35.46875 C-16.1875 32.46875 -16.1875 32.46875 -16.1875 30.46875 C-17.5075 30.79875 -18.8275 31.12875 -20.1875 31.46875 C-20.6825 33.94375 -20.6825 33.94375 -21.1875 36.46875 C-21.8475 36.46875 -22.5075 36.46875 -23.1875 36.46875 C-23.24615035 33.28132885 -23.28131259 30.09404882 -23.3125 26.90625 C-23.32925781 26.01099609 -23.34601563 25.11574219 -23.36328125 24.19335938 C-23.41372797 17.30738216 -22.93943137 12.07161947 -19 6.21875 C-13.30097837 0.6463733 -7.62404238 0.00187988 0 0 Z " fill="#EAEAEC" transform="translate(104.1875,290.53125)"/>
<path d="M0 0 C13.16738278 -1.06762563 13.16738278 -1.06762563 17.5546875 1.48828125 C22 5.94281639 22 5.94281639 22 9 C22.66 9 23.32 9 24 9 C24 9.66 24 10.32 24 11 C24.66 11 25.32 11 26 11 C27.54091405 12.69588264 29.00923297 14.45821672 30.4375 16.25 C31.21996094 17.22453125 32.00242187 18.1990625 32.80859375 19.203125 C33.53175781 20.12609375 34.25492187 21.0490625 35 22 C35.59554687 22.7321875 36.19109375 23.464375 36.8046875 24.21875 C38 26 38 26 37.6875 28.25 C37.460625 28.8275 37.23375 29.405 37 30 C36.34 30 35.68 30 35 30 C34.7421875 30.56203125 34.484375 31.1240625 34.21875 31.703125 C32.85830223 34.26704579 31.27211038 36.45226365 29.5 38.75 C28.8915625 39.54921875 28.283125 40.3484375 27.65625 41.171875 C27.1096875 41.77515625 26.563125 42.3784375 26 43 C25.34 43 24.68 43 24 43 C23.773125 43.7425 23.54625 44.485 23.3125 45.25 C21.68623889 48.65740422 20.16402874 49.94859675 17 52 C13.66796875 52.390625 13.66796875 52.390625 10.1875 52.25 C9.02605469 52.21390625 7.86460937 52.1778125 6.66796875 52.140625 C5.78753906 52.09421875 4.90710938 52.0478125 4 52 C4.56194161 47.85937762 6.8269522 45.40771861 9.4375 42.25 C10.24058594 41.26515625 11.04367187 40.2803125 11.87109375 39.265625 C12.92490234 38.14414062 12.92490234 38.14414062 14 37 C14.66 37 15.32 37 16 37 C16.309375 36.38125 16.61875 35.7625 16.9375 35.125 C17.625 33.75 18.3125 32.375 19 31 C19.66 31 20.32 31 21 31 C22.04097782 28.81416116 22.04097782 28.81416116 22 26 C20.59099971 24.22682733 19.06073385 22.81097524 17.34765625 21.33203125 C16.90292969 20.89246094 16.45820313 20.45289063 16 20 C16 19.34 16 18.68 16 18 C15.34 18 14.68 18 14 18 C12.4140625 16.390625 12.4140625 16.390625 10.625 14.25 C8.66242273 11.93096298 6.7411705 9.74780716 4.5625 7.625 C3 6 3 6 3 4 C2.34 4 1.68 4 1 4 C0.67 2.68 0.34 1.36 0 0 Z " fill="#633BC6" transform="translate(290,291)"/>
<path d="M0 0 C1.15892509 0.00424484 1.15892509 0.00424484 2.34126282 0.00857544 C4.80709368 0.01976372 7.27256031 0.04486547 9.73828125 0.0703125 C11.41080204 0.08034407 13.08332853 0.08946961 14.75585938 0.09765625 C18.85430684 0.11969858 22.95248231 0.15421887 27.05078125 0.1953125 C27.01855469 1.30390625 26.98632812 2.4125 26.953125 3.5546875 C27.05928642 7.51238506 27.65380091 8.27724948 30.05078125 11.1953125 C29.72078125 12.1853125 29.39078125 13.1753125 29.05078125 14.1953125 C28.39078125 14.1953125 27.73078125 14.1953125 27.05078125 14.1953125 C27.05078125 16.8353125 27.05078125 19.4753125 27.05078125 22.1953125 C25.17578125 21.9453125 25.17578125 21.9453125 23.05078125 21.1953125 C22.35140593 19.87884131 21.68348992 18.54509099 21.05078125 17.1953125 C20.06078125 16.8653125 19.07078125 16.5353125 18.05078125 16.1953125 C17.39078125 15.2053125 16.73078125 14.2153125 16.05078125 13.1953125 C13.11480586 12.81146741 10.37050752 12.5914695 7.42578125 12.5078125 C6.62398437 12.47365234 5.8221875 12.43949219 4.99609375 12.40429688 C3.01481807 12.32174372 1.03282088 12.25685334 -0.94921875 12.1953125 C-0.94921875 17.4753125 -0.94921875 22.7553125 -0.94921875 28.1953125 C-4.90921875 28.1953125 -8.86921875 28.1953125 -12.94921875 28.1953125 C-13.00315154 24.61177809 -13.042861 21.02905494 -13.07421875 17.4453125 C-13.09097656 16.42953125 -13.10773438 15.41375 -13.125 14.3671875 C-13.13144531 13.3875 -13.13789063 12.4078125 -13.14453125 11.3984375 C-13.15500488 10.49770508 -13.16547852 9.59697266 -13.17626953 8.66894531 C-12.93026056 5.9887701 -12.41579291 4.44117555 -10.94921875 2.1953125 C-7.20917558 -0.29804961 -4.32360266 -0.05949978 0 0 Z " fill="#CAC9CD" transform="translate(174.94921875,314.8046875)"/>
<path d="M0 0 C0.495 1.485 0.495 1.485 1 3 C-0.62339805 4.70884005 -2.29319053 6.37446717 -4 8 C-4.66 8 -5.32 8 -6 8 C-6.33 8.99 -6.66 9.98 -7 11 C-13.67645718 15.26304155 -21.16724446 14.267077 -28.8125 14.0625 C-46.64169758 13.65193053 -61.55523291 15.88691745 -75.31640625 28.046875 C-84.66546719 37.47503121 -90.64558676 51.71542125 -91.625 64.9375 C-91.69976562 65.89527344 -91.77453125 66.85304688 -91.8515625 67.83984375 C-91.90054688 68.55269531 -91.94953125 69.26554687 -92 70 C-92.33 70 -92.66 70 -93 70 C-93.7938642 62.78194245 -94.07875823 56.19172157 -93 49 C-94.17539996 49.92652701 -95.34010577 50.86663387 -96.5 51.8125 C-97.47453125 52.59560547 -97.47453125 52.59560547 -98.46875 53.39453125 C-100.34509128 54.99204833 -100.34509128 54.99204833 -100 58 C-101.35546875 59.6484375 -101.35546875 59.6484375 -103.1875 61.375 C-103.826875 61.98730469 -104.46625 62.59960938 -105.125 63.23046875 C-105.74375 63.81441406 -106.3625 64.39835937 -107 65 C-107.886875 65.886875 -108.77375 66.77375 -109.6875 67.6875 C-111.18764467 69.18764467 -112.70762347 70.66831105 -114.25 72.125 C-116.22443723 73.97977175 -116.22443723 73.97977175 -117 77 C-119.475 77.495 -119.475 77.495 -122 78 C-121.34 75.69 -120.68 73.38 -120 71 C-119.34 71 -118.68 71 -118 71 C-118 70.34 -118 69.68 -118 69 C-117.34 69 -116.68 69 -116 69 C-116.03480469 68.2471875 -116.06960937 67.494375 -116.10546875 66.71875 C-116.40278773 55.05251945 -114.31682159 44.1618257 -111 33 C-109.68 33.66 -108.36 34.32 -107 35 C-107.350625 35.94875 -107.70125 36.8975 -108.0625 37.875 C-109.35026777 40.87060172 -109.35026777 40.87060172 -108 43 C-109.485 43.495 -109.485 43.495 -111 44 C-111 44.99 -111 45.98 -111 47 C-111.31421071 49.00309329 -111.6451046 51.00371336 -112 53 C-111.34 53 -110.68 53 -110 53 C-110 52.34 -110 51.68 -110 51 C-103.6 48.78461538 -103.6 48.78461538 -100.5625 49.875 C-100.046875 50.24625 -99.53125 50.6175 -99 51 C-98.67 50.01 -98.34 49.02 -98 48 C-97.34 48 -96.68 48 -96 48 C-96 47.34 -96 46.68 -96 46 C-95.01 45.505 -95.01 45.505 -94 45 C-93.67 44.34 -93.34 43.68 -93 43 C-91.5625 41.375 -91.5625 41.375 -90 40 C-89.34 40 -88.68 40 -88 40 C-87.855625 39.38125 -87.71125 38.7625 -87.5625 38.125 C-87 36 -87 36 -86 34 C-85.34 34 -84.68 34 -84 34 C-83.731875 32.88625 -83.46375 31.7725 -83.1875 30.625 C-82 27 -82 27 -79 25 C-78.37222656 24.86078125 -77.74445313 24.7215625 -77.09765625 24.578125 C-74.37817085 23.82862064 -72.68203322 22.45096422 -70.4375 20.75 C-61.10450735 14.04018576 -52.53724671 10.77595534 -41.06640625 11.0078125 C-39.51498048 11.02532755 -37.96354777 11.04223595 -36.41210938 11.05859375 C-33.9850721 11.08953019 -31.55838716 11.12507848 -29.1315918 11.17138672 C-26.77648623 11.21390714 -24.42179217 11.23721214 -22.06640625 11.2578125 C-20.98801231 11.28574387 -20.98801231 11.28574387 -19.88783264 11.3142395 C-13.98344522 11.34405152 -9.98644012 9.93126123 -5.75 5.8125 C-5.1725 5.214375 -4.595 4.61625 -4 4 C-3.34 4 -2.68 4 -2 4 C-2 3.34 -2 2.68 -2 2 C-1.34 2 -0.68 2 0 2 C0 1.34 0 0.68 0 0 Z " fill="#744EF1" transform="translate(291,117)"/>
<path d="M0 0 C6.06891692 -0.0493933 12.13771713 -0.08571643 18.20678711 -0.10986328 C20.271912 -0.11992835 22.33702263 -0.13358154 24.40209961 -0.15087891 C27.36836264 -0.17510493 30.33443744 -0.18647797 33.30078125 -0.1953125 C34.2258699 -0.20563507 35.15095856 -0.21595764 36.1040802 -0.22659302 C36.96474594 -0.22674408 37.82541168 -0.22689514 38.7121582 -0.22705078 C39.46938675 -0.231492 40.2266153 -0.23593323 41.00679016 -0.24050903 C43 0 43 0 46 2 C46 2.66 46 3.32 46 4 C46.66 4 47.32 4 48 4 C48 5.32 48 6.64 48 8 C47.01 8 46.02 8 45 8 C44.67 8.99 44.34 9.98 44 11 C43.01 11.33 42.02 11.66 41 12 C41 11.34 41 10.68 41 10 C39.96746094 10.0721875 38.93492187 10.144375 37.87109375 10.21875 C25.23896207 11.04029253 12.6553411 11.10115282 0 11 C0 7.37 0 3.74 0 0 Z " fill="#ECECEF" transform="translate(162,291)"/>
<path d="M0 0 C0.66 0.33 1.32 0.66 2 1 C2 1.66 2 2.32 2 3 C2.66 3 3.32 3 4 3 C6.31226903 8.51457812 6.29938244 13.56510475 6.25 19.4375 C6.26160156 20.81131836 6.26160156 20.81131836 6.2734375 22.21289062 C6.25816195 27.53260151 5.74395224 31.96883621 4 37 C3.34 37 2.68 37 2 37 C1.67 37.99 1.34 38.98 1 40 C-1.25 40.6875 -1.25 40.6875 -4 41 C-6.125 39.6875 -6.125 39.6875 -8 38 C-11.65662904 35.56224731 -14.49415429 35.65313456 -18.73046875 35.5859375 C-19.85609978 35.55688828 -19.85609978 35.55688828 -21.00447083 35.5272522 C-23.39869867 35.46752541 -25.79297477 35.42109935 -28.1875 35.375 C-29.8118698 35.3368138 -31.43621948 35.29776169 -33.06054688 35.2578125 C-37.04020105 35.16182975 -41.01995001 35.07777364 -45 35 C-45 34.67 -45 34.34 -45 34 C-43.48647949 33.98598145 -43.48647949 33.98598145 -41.94238281 33.97167969 C-38.19226224 33.9317523 -34.44295971 33.86598719 -30.69335938 33.79248047 C-29.07172163 33.76428653 -27.44994687 33.74306406 -25.828125 33.72900391 C-23.49407895 33.70755128 -21.16167739 33.66089425 -18.828125 33.609375 C-18.10506165 33.60814636 -17.38199829 33.60691772 -16.63702393 33.60565186 C-13.28197836 33.50841999 -11.29635485 33.20946547 -8.52856445 31.25317383 C-6.75856514 28.64411399 -6.55851948 27.45469138 -6.71484375 24.33984375 C-6.74126953 23.46392578 -6.76769531 22.58800781 -6.79492188 21.68554688 C-6.84197266 20.77869141 -6.88902344 19.87183594 -6.9375 18.9375 C-7.0229822 17.1347187 -7.09518254 15.33124513 -7.15234375 13.52734375 C-7.19351318 12.73062256 -7.23468262 11.93390137 -7.27709961 11.11303711 C-7 9 -7 9 -5.62719727 7.19750977 C-4 6 -4 6 -1.8125 6.3125 C-1.214375 6.539375 -0.61625 6.76625 0 7 C-0.185625 6.21625 -0.37125 5.4325 -0.5625 4.625 C-1 2 -1 2 0 0 Z " fill="#CBCBCF" transform="translate(142,297)"/>
<path d="M0 0 C1.28132813 0.00902344 2.56265625 0.01804687 3.8828125 0.02734375 C4.87023437 0.03894531 5.85765625 0.05054688 6.875 0.0625 C5.75048273 3.0344385 4.65206209 5.39690687 2.875 8.0625 C2.215 8.0625 1.555 8.0625 0.875 8.0625 C0.6378125 8.60390625 0.400625 9.1453125 0.15625 9.703125 C-1.46847757 12.69500137 -3.4751877 15.17409399 -5.625 17.8125 C-6.4190625 18.79734375 -7.213125 19.7821875 -8.03125 20.796875 C-8.7221875 21.54453125 -9.413125 22.2921875 -10.125 23.0625 C-10.785 23.0625 -11.445 23.0625 -12.125 23.0625 C-12.125 23.7225 -12.125 24.3825 -12.125 25.0625 C-13.8125 25.875 -13.8125 25.875 -16.125 26.0625 C-20.91987179 22.35737179 -20.91987179 22.35737179 -21.5 18.6953125 C-21.00669946 15.23193159 -19.63772116 13.70509406 -17.375 11.0625 C-16.67890625 10.2375 -15.9828125 9.4125 -15.265625 8.5625 C-14.55921875 7.7375 -13.8528125 6.9125 -13.125 6.0625 C-12.06539063 4.70125 -12.06539063 4.70125 -10.984375 3.3125 C-7.69365021 -0.66955353 -4.98812882 -0.04534663 0 0 Z " fill="#77CBF9" transform="translate(348.125,290.9375)"/>
<path d="M0 0 C1.09658936 3.28976808 0.79953138 4.71303767 0 8 C-0.66 8 -1.32 8 -2 8 C-1.67 9.65 -1.34 11.3 -1 13 C0.98 13 2.96 13 5 13 C4.4880406 17.69757345 3.25790901 20.65757377 0.625 24.5625 C0.01914062 25.47128906 -0.58671875 26.38007813 -1.2109375 27.31640625 C-1.80132812 28.20199219 -2.39171875 29.08757812 -3 30 C-3.64775391 31.39605469 -3.64775391 31.39605469 -4.30859375 32.8203125 C-6 35 -6 35 -9.13671875 35.48828125 C-10.89435547 35.40126953 -10.89435547 35.40126953 -12.6875 35.3125 C-13.86699219 35.26738281 -15.04648437 35.22226562 -16.26171875 35.17578125 C-17.61716797 35.08876953 -17.61716797 35.08876953 -19 35 C-18.45628639 29.93852057 -16.02872919 26.25483466 -13.4375 22 C-12.99293457 21.25758057 -12.54836914 20.51516113 -12.09033203 19.75024414 C-10.7358341 17.4946013 -9.3701828 15.2461442 -8 13 C-7.5860498 12.32050293 -7.17209961 11.64100586 -6.74560547 10.94091797 C-4.51344456 7.28369999 -2.26458812 3.63725746 0 0 Z " fill="#CDCCD1" transform="translate(381,308)"/>
<path d="M0 0 C4.14182257 0.50877059 6.0254538 1.54150807 8.875 4.5625 C9.555625 5.28050781 10.23625 5.99851562 10.9375 6.73828125 C11.9584375 7.85783203 11.9584375 7.85783203 13 9 C13.66 9.71542969 14.32 10.43085938 15 11.16796875 C17.83948283 14.32097781 20.22926256 17.11469261 22 21 C22.66 21 23.32 21 24 21 C24 21.99 24 22.98 24 24 C18.2140577 25.00833849 12.18322151 26.00494054 6.99755859 22.73876953 C5.01176922 21.07663509 3.25388936 19.34214295 1.5 17.4375 C0.93063721 16.8295459 0.36127441 16.2215918 -0.2253418 15.59521484 C-3.15933673 12.10830481 -4.02955821 10.75003959 -3.84375 6.03515625 C-3.5653125 5.03355469 -3.286875 4.03195312 -3 3 C-2.34 3 -1.68 3 -1 3 C-0.67 2.01 -0.34 1.02 0 0 Z " fill="#3395EE" transform="translate(331,319)"/>
<path d="M0 0 C1.27617187 0.02320313 2.55234375 0.04640625 3.8671875 0.0703125 C5.78917969 0.09738281 5.78917969 0.09738281 7.75 0.125 C9.23113281 0.15980469 9.23113281 0.15980469 10.7421875 0.1953125 C9.32269139 4.39307371 7.2783285 7.25753198 4.4296875 10.6328125 C1.88147987 13.65396746 -0.62116871 16.67116271 -3.0078125 19.8203125 C-5.2578125 22.1953125 -5.2578125 22.1953125 -7.8828125 23.2578125 C-10.2578125 23.1953125 -10.2578125 23.1953125 -11.8828125 21.8203125 C-12.3365625 21.2840625 -12.7903125 20.7478125 -13.2578125 20.1953125 C-14.2478125 19.8653125 -15.2378125 19.5353125 -16.2578125 19.1953125 C-16.2578125 17.8753125 -16.2578125 16.5553125 -16.2578125 15.1953125 C-15.5978125 15.1953125 -14.9378125 15.1953125 -14.2578125 15.1953125 C-14 14.63070313 -13.7421875 14.06609375 -13.4765625 13.484375 C-12.12504264 10.94594346 -10.5388386 8.826782 -8.7578125 6.5703125 C-8.149375 5.79429687 -7.5409375 5.01828125 -6.9140625 4.21875 C-3.63947613 0.21819401 -3.63947613 0.21819401 0 0 Z " fill="#EBEBEC" transform="translate(271.2578125,290.8046875)"/>
<path d="M0 0 C2.75154473 1.10310857 3.38918456 2.41345874 4.84667969 4.97021484 C5.33007812 5.81068359 5.81347656 6.65115234 6.31152344 7.51708984 C6.80265625 8.40138672 7.29378906 9.28568359 7.79980469 10.19677734 C8.30640625 11.07333984 8.81300781 11.94990234 9.33496094 12.85302734 C13.04980469 19.40156592 13.04980469 19.40156592 13.04980469 22.82177734 C8.43122709 23.78546819 4.62583885 24.1006017 0.04980469 22.82177734 C-4.19531907 18.79669703 -6.52426293 13.05244219 -8.95019531 7.82177734 C-9.9484044 5.82088289 -10.94770543 3.82053046 -11.95019531 1.82177734 C-9.95019531 1.82177734 -7.95019531 1.82177734 -5.95019531 1.82177734 C-5.95019531 2.81177734 -5.95019531 3.80177734 -5.95019531 4.82177734 C-5.51707031 3.86271484 -5.51707031 3.86271484 -5.07519531 2.88427734 C-3.68282787 0.3316037 -2.91842086 -0.26670596 0 0 Z " fill="#C2C1C6" transform="translate(417.9501953125,320.17822265625)"/>
<path d="M0 0 C13.01552031 -1.3568303 13.01552031 -1.3568303 17.51953125 1.72265625 C21.48649333 6.59158024 22.78266384 10.80591943 23 17 C23.33 17.66 23.66 18.32 24 19 C21.1875 20.5625 21.1875 20.5625 18 22 C14.58841744 20.86280581 13.88145399 19.95657056 12 17 C12 16.34 12 15.68 12 15 C11.34 15 10.68 15 10 15 C8.125 12.98828125 8.125 12.98828125 6 10.3125 C5.29875 9.44238281 4.5975 8.57226562 3.875 7.67578125 C2.10977574 5.15665913 1.00130982 2.8944112 0 0 Z " fill="#E1E1E3" transform="translate(223,291)"/>
<path d="M0 0 C0 0.99 0 1.98 0 3 C-1.98 3 -3.96 3 -6 3 C-6.33 3.99 -6.66 4.98 -7 6 C-8.7421875 6.765625 -8.7421875 6.765625 -10.875 7.25 C-11.57367188 7.42015625 -12.27234375 7.5903125 -12.9921875 7.765625 C-15 8 -15 8 -18 7 C-18.99 7.33 -19.98 7.66 -21 8 C-21 7.34 -21 6.68 -21 6 C-22.62808594 6.10828125 -22.62808594 6.10828125 -24.2890625 6.21875 C-25.73436844 6.31260104 -27.17968132 6.40634537 -28.625 6.5 C-29.69427734 6.57154297 -29.69427734 6.57154297 -30.78515625 6.64453125 C-34.86507561 6.90654442 -38.90891219 7.05162256 -43 7 C-42.67 7.99 -42.34 8.98 -42 10 C-42.60328125 10.02578125 -43.2065625 10.0515625 -43.828125 10.078125 C-49.06981501 10.37388587 -49.06981501 10.37388587 -53.4375 13.0625 C-53.953125 13.701875 -54.46875 14.34125 -55 15 C-55.66 15 -56.32 15 -57 15 C-57 16.32 -57 17.64 -57 19 C-56.360625 19.0825 -55.72125 19.165 -55.0625 19.25 C-50.79458483 20.29520372 -46.96892333 22.14091826 -43 24 C-44.546875 24.71484375 -44.546875 24.71484375 -47 25 C-49.53857885 23.94608774 -51.84495527 22.86034426 -54.25 21.5625 C-54.8996875 21.22412109 -55.549375 20.88574219 -56.21875 20.53710938 C-57.81814494 19.70213113 -59.40985859 18.85246886 -61 18 C-60.67 16.35 -60.34 14.7 -60 13 C-59.34 13 -58.68 13 -58 13 C-57.73727295 12.39591309 -57.4745459 11.79182617 -57.20385742 11.16943359 C-55.07455238 7.33227995 -52.02805192 5.5879452 -48 4 C-43.3921288 3.33491615 -38.83688282 3.35295356 -34.1875 3.375 C-22.51439831 3.22255965 -11.44302185 2.26580383 0 0 Z " fill="#44A1D9" transform="translate(270,229)"/>
<path d="M0 0 C12.21 0 24.42 0 37 0 C37 0.33 37 0.66 37 1 C19.675 1.495 19.675 1.495 2 2 C3.98 4.97 5.96 7.94 8 11 C9.42578125 13.890625 9.42578125 13.890625 10.3125 16.25 C10.61800781 17.03890625 10.92351562 17.8278125 11.23828125 18.640625 C13.35717761 25.20377066 13.36250638 31.8510854 13.625 38.6875 C13.6765625 39.84056641 13.728125 40.99363281 13.78125 42.18164062 C13.82507813 43.28056641 13.86890625 44.37949219 13.9140625 45.51171875 C13.9548291 46.51678467 13.9955957 47.52185059 14.03759766 48.55737305 C14 51 14 51 13 53 C12.34 53 11.68 53 11 53 C11 53.66 11 54.32 11 55 C10.34 55 9.68 55 9 55 C9.33 56.32 9.66 57.64 10 59 C11.65 57.68 13.3 56.36 15 55 C15.93423645 58.01031744 16.04449911 58.86650268 15 62 C13.68 61.67 12.36 61.34 11 61 C10.54625 62.134375 10.0925 63.26875 9.625 64.4375 C8 68 8 68 6 69 C6 68.01 6 67.02 6 66 C3.525 66.495 3.525 66.495 1 67 C1.47050781 66.14019531 1.94101562 65.28039062 2.42578125 64.39453125 C9.79035417 50.56648576 13.20277314 37.54780022 9.0546875 22.140625 C7.14541438 16.45523393 4.7757909 9.52175646 0.25 5.41015625 C-0.36875 4.71212891 -0.36875 4.71212891 -1 4 C-0.67 2.68 -0.34 1.36 0 0 Z " fill="#3B78BE" transform="translate(288,146)"/>
<path d="M0 0 C0.495 1.485 0.495 1.485 1 3 C-0.62339805 4.70884005 -2.29319053 6.37446717 -4 8 C-4.66 8 -5.32 8 -6 8 C-6.33 8.99 -6.66 9.98 -7 11 C-13.67645718 15.26304155 -21.16724446 14.267077 -28.8125 14.0625 C-46.51805973 13.65477765 -61.82919063 15.77555488 -75.3515625 28.15234375 C-81.44387246 34.43822208 -84.7685368 40.91500579 -88 49 C-89.2240978 46.11112919 -89.02264647 45.05734548 -87.84765625 42.08203125 C-79.91979618 27.56207747 -69.91559067 17.58547144 -54 12 C-49.67691362 10.8938756 -45.49431405 10.91831233 -41.06640625 11.0078125 C-39.51498048 11.02532755 -37.96354777 11.04223595 -36.41210938 11.05859375 C-33.9850721 11.08953019 -31.55838716 11.12507848 -29.1315918 11.17138672 C-26.77648623 11.21390714 -24.42179217 11.23721214 -22.06640625 11.2578125 C-20.98801231 11.28574387 -20.98801231 11.28574387 -19.88783264 11.3142395 C-13.98344522 11.34405152 -9.98644012 9.93126123 -5.75 5.8125 C-5.1725 5.214375 -4.595 4.61625 -4 4 C-3.34 4 -2.68 4 -2 4 C-2 3.34 -2 2.68 -2 2 C-1.34 2 -0.68 2 0 2 C0 1.34 0 0.68 0 0 Z " fill="#2F185C" transform="translate(291,117)"/>
<path d="M0 0 C13.16738278 -1.06762563 13.16738278 -1.06762563 17.5546875 1.48828125 C22 5.94281639 22 5.94281639 22 9 C22.66 9 23.32 9 24 9 C24 9.66 24 10.32 24 11 C24.66 11 25.32 11 26 11 C25.67 11.66 25.34 12.32 25 13 C23 13 23 13 21.375 11.625 C20 10 20 10 20 8 C19.01 8 18.02 8 17 8 C17 11.3 17 14.6 17 18 C14 18 14 18 12.31640625 16.390625 C11.73761719 15.68421875 11.15882813 14.9778125 10.5625 14.25 C8.62057853 11.92133993 6.73763265 9.74436002 4.5625 7.625 C3 6 3 6 3 4 C2.34 4 1.68 4 1 4 C0.67 2.68 0.34 1.36 0 0 Z " fill="#8C56F0" transform="translate(290,291)"/>
<path d="M0 0 C1.32 0.66 2.64 1.32 4 2 C3.649375 2.94875 3.29875 3.8975 2.9375 4.875 C1.64973223 7.87060172 1.64973223 7.87060172 3 10 C2.01 10.33 1.02 10.66 0 11 C0 11.99 0 12.98 0 14 C-0.31421071 16.00309329 -0.6451046 18.00371336 -1 20 C-0.34 20 0.32 20 1 20 C1 19.34 1 18.68 1 18 C3.31 17.34 5.62 16.68 8 16 C8.99 17.32 9.98 18.64 11 20 C10.36191406 20.62648437 9.72382813 21.25296875 9.06640625 21.8984375 C8.24011719 22.71570313 7.41382813 23.53296875 6.5625 24.375 C5.73878906 25.18710938 4.91507813 25.99921875 4.06640625 26.8359375 C1.96565328 28.82348515 1.96565328 28.82348515 1 31 C0.34 31 -0.32 31 -1 31 C-1.495 32.485 -1.495 32.485 -2 34 C-3.485 34.495 -3.485 34.495 -5 35 C-5.61829416 22.90891413 -3.43671158 11.55033934 0 0 Z " fill="#4324BB" transform="translate(180,150)"/>
<path d="M0 0 C3.21692145 1.07230715 3.95434602 1.79457696 6.0625 4.3125 C6.56910156 4.90675781 7.07570312 5.50101562 7.59765625 6.11328125 C8.99984327 7.99978913 10.01710721 9.86961516 11 12 C11.66 12 12.32 12 13 12 C13 12.66 13 13.32 13 14 C13.66 14 14.32 14 15 14 C15.33 15.32 15.66 16.64 16 18 C13.60225255 18.13572155 11.21224755 18.23436868 8.8125 18.3125 C7.80219727 18.3753418 7.80219727 18.3753418 6.77148438 18.43945312 C2.67801586 18.53929382 1.18888197 18.15925343 -1.98828125 15.48046875 C-2.98408203 14.25263672 -2.98408203 14.25263672 -4 13 C-3.34 12.67 -2.68 12.34 -2 12 C-2.226875 11.071875 -2.45375 10.14375 -2.6875 9.1875 C-2.8421875 7.6096875 -2.8421875 7.6096875 -3 6 C-1.5625 4.3125 -1.5625 4.3125 0 3 C0 2.01 0 1.02 0 0 Z " fill="#CAC9CD" transform="translate(204,325)"/>
<path d="M0 0 C0.02725341 1.7290774 0.04650987 3.45828176 0.0625 5.1875 C0.07410156 6.15042969 0.08570313 7.11335937 0.09765625 8.10546875 C0.0037901 10.88766157 -0.22440085 13.32584833 -1 16 C-2.65697379 16.69040574 -4.3255761 17.3530635 -6 18 C-7.87317278 19.88332548 -9.38550024 21.87808603 -11 24 C-11 23.01 -11 22.02 -11 21 C-15.53140653 20.06619039 -15.53140653 20.06619039 -20 21 C-18.5450489 17.65215892 -16.70194509 15.45622627 -14.12109375 12.890625 C-13.36505859 12.13652344 -12.60902344 11.38242188 -11.83007812 10.60546875 C-11.04052734 9.82816406 -10.25097656 9.05085937 -9.4375 8.25 C-8.64408203 7.45722656 -7.85066406 6.66445312 -7.03320312 5.84765625 C-1.14025522 0 -1.14025522 0 0 0 Z " fill="#1656A9" transform="translate(325,178)"/>
<path d="M0 0 C0.99 0 1.98 0 3 0 C3 0.66 3 1.32 3 2 C3.7425 2.268125 4.485 2.53625 5.25 2.8125 C9.70230578 4.73508659 11.50225416 6.02228496 13.75 10.4375 C15 14 15 14 15 18 C12 20.25 12 20.25 9 22 C8.67 20.02 8.34 18.04 8 16 C7.34 16 6.68 16 6 16 C5.67 14.68 5.34 13.36 5 12 C4.01 12 3.02 12 2 12 C2 11.34 2 10.68 2 10 C1.34 10 0.68 10 0 10 C-1.125 3.375 -1.125 3.375 0 0 Z " fill="#5634EC" transform="translate(307,299)"/>
<path d="M0 0 C0.66 0.33 1.32 0.66 2 1 C1.96519531 2.24136719 1.93039063 3.48273438 1.89453125 4.76171875 C1.86638416 6.40363226 1.83908499 8.04556046 1.8125 9.6875 C1.78736328 10.50412109 1.76222656 11.32074219 1.73632812 12.16210938 C1.67782988 16.97846486 1.92697624 20.03975154 5 24 C3.35 24.33 1.7 24.66 0 25 C0.33 25.99 0.66 26.98 1 28 C0.01 28.33 -0.98 28.66 -2 29 C-3.66710346 30.49985609 -3.66710346 30.49985609 -5 32 C-5.33 31.01 -5.66 30.02 -6 29 C-6.66 29 -7.32 29 -8 29 C-10.02907167 25.6853333 -10.12742133 23.5684021 -9.625 19.75 C-9.45871094 18.41195313 -9.45871094 18.41195313 -9.2890625 17.046875 C-9.14597656 16.03367187 -9.14597656 16.03367187 -9 15 C-7.35 14.34 -5.7 13.68 -4 13 C-3.34 13.66 -2.68 14.32 -2 15 C-2.375 17.125 -2.375 17.125 -3 19 C-2.34 18.67 -1.68 18.34 -1 18 C-0.505 9.09 -0.505 9.09 0 0 Z " fill="#C1C0C4" transform="translate(92,307)"/>
<path d="M0 0 C6.63157895 6.44736842 6.63157895 6.44736842 9 10 C8.75 12.3125 8.75 12.3125 8 14 C7.34 14 6.68 14 6 14 C5.61714844 14.84304688 5.61714844 14.84304688 5.2265625 15.703125 C3.84307219 18.29386482 2.20061417 20.45107845 0.375 22.75 C-0.25664062 23.54921875 -0.88828125 24.3484375 -1.5390625 25.171875 C-2.02117187 25.77515625 -2.50328125 26.3784375 -3 27 C-3.66 25.68 -4.32 24.36 -5 23 C-4.01 22.67 -3.02 22.34 -2 22 C-1.67 20.35 -1.34 18.7 -1 17 C-2.175625 16.690625 -2.175625 16.690625 -3.375 16.375 C-6.93100215 14.51233221 -6.82466664 12.7463751 -8 9 C-9.62746694 7.29503463 -11.28891311 5.62102968 -13 4 C-13 3.34 -13 2.68 -13 2 C-12.01 2 -11.02 2 -10 2 C-10 2.66 -10 3.32 -10 4 C-9.01 4 -8.02 4 -7 4 C-6.67 5.32 -6.34 6.64 -6 8 C-5.34 8 -4.68 8 -4 8 C-3.34 9.65 -2.68 11.3 -2 13 C-1.54625 12.505 -1.0925 12.01 -0.625 11.5 C1 10 1 10 3 10 C2.01 6.7 1.02 3.4 0 0 Z " fill="#4F34D5" transform="translate(319,307)"/>
<path d="M0 0 C1.98378027 2.78573399 2.00891398 3.94393238 1.4609375 7.390625 C1.11609522 8.68178253 0.75325264 9.96823212 0.375 11.25 C0.0951123 12.24882202 0.0951123 12.24882202 -0.19042969 13.26782227 C-1.62720939 18.20088624 -3.4576878 22.55095365 -6 27 C-7.32 26.34 -8.64 25.68 -10 25 C-10 24.01 -10 23.02 -10 22 C-10.99 21.67 -11.98 21.34 -13 21 C-12.75 18.625 -12.75 18.625 -12 16 C-11.35417969 15.70480469 -10.70835937 15.40960938 -10.04296875 15.10546875 C-7.83716676 14.18243119 -7.83716676 14.18243119 -7.12890625 12.01171875 C-6.94199219 11.24472656 -6.75507813 10.47773438 -6.5625 9.6875 C-5.24461399 5.14811486 -3.59623638 3.01306291 0 0 Z " fill="#236FBF" transform="translate(322,192)"/>
<path d="M0 0 C0.66 0.33 1.32 0.66 2 1 C1.1875 3.9375 1.1875 3.9375 0 7 C-0.99 7.33 -1.98 7.66 -3 8 C-4.22520264 11.00847418 -4.22520264 11.00847418 -5 14 C-4.34 14 -3.68 14 -3 14 C-3 15.32 -3 16.64 -3 18 C-2.01 18 -1.02 18 0 18 C-0.33 17.01 -0.66 16.02 -1 15 C-0.01 14.67 0.98 14.34 2 14 C2.66 14.66 3.32 15.32 4 16 C2.38405168 18.04119788 0.7143618 20.04072937 -1 22 C-1.66 22 -2.32 22 -3 22 C-3 22.66 -3 23.32 -3 24 C-4.6875 24.8125 -4.6875 24.8125 -7 25 C-11.79487179 21.29487179 -11.79487179 21.29487179 -12.375 17.6328125 C-11.88169946 14.16943159 -10.51272116 12.64259406 -8.25 10 C-7.55390625 9.175 -6.8578125 8.35 -6.140625 7.5 C-5.43421875 6.675 -4.7278125 5.85 -4 5 C-2.66104368 3.33784732 -1.32603629 1.6724782 0 0 Z " fill="#56AFE6" transform="translate(339,292)"/>
<path d="M0 0 C12.21 0 24.42 0 37 0 C36.67 0.66 36.34 1.32 36 2 C35.06148193 1.98428955 35.06148193 1.98428955 34.10400391 1.96826172 C31.2777099 1.92676809 28.45147989 1.90069527 25.625 1.875 C24.64015625 1.85824219 23.6553125 1.84148437 22.640625 1.82421875 C21.69960938 1.81777344 20.75859375 1.81132812 19.7890625 1.8046875 C18.91975098 1.79421387 18.05043945 1.78374023 17.15478516 1.77294922 C14.78654061 1.79404891 14.78654061 1.79404891 13 4 C12.484375 4.474375 11.96875 4.94875 11.4375 5.4375 C9.75506028 7.05216847 9.75506028 7.05216847 9 10 C9.97850195 11.02104551 10.97980427 12.0206121 12 13 C12.33 13 12.66 13 13 13 C12.67 16.96 12.34 20.92 12 25 C11.67 25 11.34 25 11 25 C10.82984375 24.3709375 10.6596875 23.741875 10.484375 23.09375 C8.06051217 14.53287277 4.41839175 7.73218557 0 0 Z " fill="#7A84F5" transform="translate(289,147)"/>
<path d="M0 0 C0.33 0.66 0.66 1.32 1 2 C1.92232422 2.40605469 1.92232422 2.40605469 2.86328125 2.8203125 C5.66726911 4.36840086 6.59623322 6.11789509 8.1875 8.875 C8.95126953 10.17050781 8.95126953 10.17050781 9.73046875 11.4921875 C10.84973707 13.70317292 11.53302297 15.58072142 12 18 C9.77090129 18.02714735 7.54170633 18.04646254 5.3125 18.0625 C4.07113281 18.07410156 2.82976562 18.08570313 1.55078125 18.09765625 C-1.46235454 18.01478673 -4.08275339 17.70839449 -7 17 C-5.6875 15.5 -5.6875 15.5 -4 14 C-3.01 14 -2.02 14 -1 14 C-0.34 13.01 0.32 12.02 1 11 C1.66 11.33 2.32 11.66 3 12 C2.34 11.34 1.68 10.68 1 10 C0.5859375 7.6171875 0.5859375 7.6171875 0.375 4.875 C0.30023438 3.96492187 0.22546875 3.05484375 0.1484375 2.1171875 C0.09945312 1.41851562 0.05046875 0.71984375 0 0 Z " fill="#5074DC" transform="translate(200,198)"/>
<path d="M0 0 C-1.15173355 2.46800047 -2.04783565 4.04783565 -4 6 C-3.01 7.485 -3.01 7.485 -2 9 C-2.0625 11.0625 -2.0625 11.0625 -3 13 C-5.3125 14.4375 -5.3125 14.4375 -8 15 C-10.125 13.6875 -10.125 13.6875 -12 12 C-12.99 11.67 -13.98 11.34 -15 11 C-15 9.68 -15 8.36 -15 7 C-14.34 7 -13.68 7 -13 7 C-12.71125 6.401875 -12.4225 5.80375 -12.125 5.1875 C-8.93099064 -1.02307375 -6.58515849 -1.3170317 0 0 Z " fill="#DFDFE1" transform="translate(270,299)"/>
<path d="M0 0 C13.5470852 -1.0735426 13.5470852 -1.0735426 17.109375 1.55859375 C18.4375 3.5 18.4375 3.5 20 7 C18.02 7 16.04 7 14 7 C13.67 8.32 13.34 9.64 13 11 C12.01 11 11.02 11 10 11 C9.67 11.66 9.34 12.32 9 13 C7.4941255 11.21326795 5.9954515 9.42046492 4.5 7.625 C3.6646875 6.62726563 2.829375 5.62953125 1.96875 4.6015625 C0 2 0 2 0 0 Z " fill="#CFCFD3" transform="translate(223,291)"/>
<path d="M0 0 C0.34078983 3.16993598 0.3124962 4.57387746 -1.60473633 7.18823242 C-2.33974365 7.90342041 -3.07475098 8.6186084 -3.83203125 9.35546875 C-4.63060547 10.14244141 -5.42917969 10.92941406 -6.25195312 11.74023438 C-7.51942383 12.95163086 -7.51942383 12.95163086 -8.8125 14.1875 C-9.64587891 15.00669922 -10.47925781 15.82589844 -11.33789062 16.66992188 C-17.44541396 22.63027597 -17.44541396 22.63027597 -21 25 C-21.97608217 22.07175348 -22.08226668 20.04386724 -22 17 C-19.03 16.34 -16.06 15.68 -13 15 C-12.62875 13.453125 -12.62875 13.453125 -12.25 11.875 C-11.13764077 8.04008323 -9.54120187 5.12204801 -7 2 C-4.47937802 0.6796742 -2.83191371 0 0 0 Z " fill="#45A2F8" transform="translate(323,175)"/>
<path d="M0 0 C0.33 0.66 0.66 1.32 1 2 C1.66 2 2.32 2 3 2 C3 2.66 3 3.32 3 4 C3.66 4 4.32 4 5 4 C7.92283277 10.31331879 8.68322506 15.17549568 7 22 C4.71179533 26.41296615 2.01147713 29.10282207 -2 32 C-4 28.125 -4 28.125 -4 27 C-2.35 27 -0.7 27 1 27 C3.41924744 20.49827251 3.63291973 13.88765583 3 7 C1.27773504 3.75150023 1.27773504 3.75150023 -2 3 C-3.62567079 2.85284801 -5.25586857 2.75278133 -6.88671875 2.68359375 C-7.82451172 2.64169922 -8.76230469 2.59980469 -9.72851562 2.55664062 C-10.70498047 2.51732422 -11.68144531 2.47800781 -12.6875 2.4375 C-13.67556641 2.39431641 -14.66363281 2.35113281 -15.68164062 2.30664062 C-18.12095546 2.20058346 -20.56037113 2.09852286 -23 2 C-23 1.67 -23 1.34 -23 1 C-22.3387915 1.00523682 -21.67758301 1.01047363 -20.99633789 1.01586914 C-18.01840149 1.03657656 -15.04048018 1.04964012 -12.0625 1.0625 C-11.02158203 1.07087891 -9.98066406 1.07925781 -8.90820312 1.08789062 C-7.91884766 1.09111328 -6.92949219 1.09433594 -5.91015625 1.09765625 C-4.99371338 1.10289307 -4.07727051 1.10812988 -3.13305664 1.11352539 C-1.01636977 1.23921211 -1.01636977 1.23921211 0 0 Z " fill="#6294E3" transform="translate(326,147)"/>
<path d="M0 0 C0.99 0.33 1.98 0.66 3 1 C3 1.66 3 2.32 3 3 C3.66 3 4.32 3 5 3 C7 6 7 6 6.625 8.6875 C6.41875 9.450625 6.2125 10.21375 6 11 C4.35 11 2.7 11 1 11 C0.67 11.99 0.34 12.98 0 14 C-0.66 14 -1.32 14 -2 14 C-2 13.01 -2 12.02 -2 11 C-23.78 10.505 -23.78 10.505 -46 10 C-46 9.67 -46 9.34 -46 9 C-25.21 8.01 -25.21 8.01 -4 7 C-4 7.66 -4 8.32 -4 9 C-3.071875 8.0409375 -3.071875 8.0409375 -2.125 7.0625 C0 5 0 5 2 4 C2 3.34 2 2.68 2 2 C1.34 2 0.68 2 0 2 C0 1.34 0 0.68 0 0 Z " fill="#929296" transform="translate(208,293)"/>
<path d="M0 0 C0.33 0 0.66 0 1 0 C1.33 1.65 1.66 3.3 2 5 C2.99 4.34 3.98 3.68 5 3 C5.99 3.33 6.98 3.66 8 4 C8.33 3.01 8.66 2.02 9 1 C10.2062252 4.61867559 10.10816918 7.92506251 10.0625 11.6875 C10.05798828 12.38939453 10.05347656 13.09128906 10.04882812 13.81445312 C10.03706927 15.54300538 10.01913454 17.27151365 10 19 C9.34 19 8.68 19 8 19 C7 16 7 16 7 14 C5.68 14.33 4.36 14.66 3 15 C2.67 16.65 2.34 18.3 2 20 C1.34 20 0.68 20 0 20 C0 13.4 0 6.8 0 0 Z " fill="#D6D5D9" transform="translate(81,307)"/>
<path d="M0 0 C1.65 0 3.3 0 5 0 C5 0.66 5 1.32 5 2 C3.19186125 2.80157758 1.37819627 3.59069175 -0.4375 4.375 C-1.44683594 4.81585938 -2.45617187 5.25671875 -3.49609375 5.7109375 C-11.91618547 8.80863011 -19.62559667 9.26505997 -28.5625 9.125 C-29.66658203 9.11597656 -30.77066406 9.10695313 -31.90820312 9.09765625 C-34.6057017 9.07430128 -37.30273077 9.04155054 -40 9 C-39.67 8.01 -39.34 7.02 -39 6 C-29.43 6 -19.86 6 -10 6 C-10.33 5.01 -10.66 4.02 -11 3 C-10.67 2.67 -10.34 2.34 -10 2 C-8.30858344 2.08963062 -6.62040398 2.24577676 -4.9375 2.4375 C-3.55884766 2.59025391 -3.55884766 2.59025391 -2.15234375 2.74609375 C-1.44207031 2.82988281 -0.73179687 2.91367188 0 3 C0 2.01 0 1.02 0 0 Z " fill="#328DCA" transform="translate(278,249)"/>
<path d="M0 0 C2.74148672 0.37047118 4.58593199 0.68587944 6.8125 2.375 C8 4 8 4 8 7 C7.34 7.66 6.68 8.32 6 9 C5.3574765 11.06874034 5.3574765 11.06874034 5 13 C2.75 13.75 2.75 13.75 0 14 C-2.375 12.5 -2.375 12.5 -4 10 C-3.75 6.25 -3.75 6.25 -3 3 C-2.34 3 -1.68 3 -1 3 C-0.67 2.01 -0.34 1.02 0 0 Z " fill="#3FA3F5" transform="translate(331,319)"/>
<path d="M0 0 C1.75211782 0.25677589 3.50167936 0.53102953 5.25 0.8125 C6.22453125 0.96332031 7.1990625 1.11414063 8.203125 1.26953125 C11.16855154 2.04402114 12.82056974 2.85689358 15 5 C15 5.99 15 6.98 15 8 C14.34 8 13.68 8 13 8 C13 8.66 13 9.32 13 10 C11.13671875 11.7265625 11.13671875 11.7265625 8.6875 13.625 C7.88699219 14.25664063 7.08648437 14.88828125 6.26171875 15.5390625 C4 17 4 17 1 17 C1.66 15.35 2.32 13.7 3 12 C3.66 12 4.32 12 5 12 C5.33 9.69 5.66 7.38 6 5 C5.34 5 4.68 5 4 5 C3.34 4.34 2.68 3.68 2 3 C1.34 2.67 0.68 2.34 0 2 C0 1.34 0 0.68 0 0 Z " fill="#B497E3" transform="translate(276,111)"/>
<path d="M0 0 C0.495 1.485 0.495 1.485 1 3 C-0.62339805 4.70884005 -2.29319053 6.37446717 -4 8 C-4.66 8 -5.32 8 -6 8 C-6.33 8.99 -6.66 9.98 -7 11 C-13.20946765 14.7222019 -19.29727969 14.3849744 -26.375 14.25 C-27.47972656 14.24484375 -28.58445312 14.2396875 -29.72265625 14.234375 C-37.84555512 14.15444488 -37.84555512 14.15444488 -39 13 C-40.68183948 12.76712992 -42.3712416 12.58735834 -44.0625 12.4375 C-44.98160156 12.35371094 -45.90070313 12.26992187 -46.84765625 12.18359375 C-47.55792969 12.12300781 -48.26820313 12.06242188 -49 12 C-49 11.67 -49 11.34 -49 11 C-47.97116699 11.01571045 -46.94233398 11.0314209 -45.88232422 11.04760742 C-42.04695537 11.10211334 -38.21162043 11.13642477 -34.37597656 11.16479492 C-32.71934237 11.17983465 -31.06274769 11.20027177 -29.40625 11.22631836 C-27.0181297 11.26291515 -24.63053812 11.27977439 -22.2421875 11.29296875 C-21.50757294 11.30845261 -20.77295837 11.32393646 -20.01608276 11.33988953 C-14.05958624 11.34181692 -10.02836601 9.97202251 -5.75 5.8125 C-5.1725 5.214375 -4.595 4.61625 -4 4 C-3.34 4 -2.68 4 -2 4 C-2 3.34 -2 2.68 -2 2 C-1.34 2 -0.68 2 0 2 C0 1.34 0 0.68 0 0 Z " fill="#311E5D" transform="translate(291,117)"/>
<path d="M0 0 C0.33 0 0.66 0 1 0 C1 3.63 1 7.26 1 11 C3.64 11.33 6.28 11.66 9 12 C8.42676569 15.86933162 6.61046448 18.15222057 4 21 C3.34 21 2.68 21 2 21 C1.67 21.99 1.34 22.98 1 24 C0.01 24.33 -0.98 24.66 -2 25 C-2.27733386 16.4488728 -1.52016163 8.41518047 0 0 Z " fill="#341A96" transform="translate(177,160)"/>
<path d="M0 0 C16.70605727 -0.71365255 29.93721252 0.18202354 45 8 C42.53665839 9.2316708 41.33418611 8.95802288 38.625 8.625 C37.85414063 8.53476563 37.08328125 8.44453125 36.2890625 8.3515625 C34 8 34 8 31.8359375 7.3984375 C29.91585622 6.78093268 29.91585622 6.78093268 28 8 C27.34 7.34 26.68 6.68 26 6 C25.34 6 24.68 6 24 6 C24 5.01 24 4.02 24 3 C16.08 2.34 8.16 1.68 0 1 C0 0.67 0 0.34 0 0 Z " fill="#926EBF" transform="translate(239,104)"/>
<path d="M0 0 C12.21 0 24.42 0 37 0 C37 0.33 37 0.66 37 1 C19.675 1.495 19.675 1.495 2 2 C3.98 4.97 5.96 7.94 8 11 C11.57721725 17.64750264 12.57444521 23.50029866 12 31 C11.67 31 11.34 31 11 31 C10.77957031 29.90945312 10.77957031 29.90945312 10.5546875 28.796875 C8.80092259 20.93517024 6.43597666 11.03000558 0.25 5.41015625 C-0.36875 4.71212891 -0.36875 4.71212891 -1 4 C-0.67 2.68 -0.34 1.36 0 0 Z " fill="#464D89" transform="translate(288,146)"/>
<path d="M0 0 C0.66 0.66 1.32 1.32 2 2 C1.77502945 9.08657244 1.77502945 9.08657244 -0.75 12.0625 C-3.67059169 13.2794132 -5.06710098 13.1577233 -8 12 C-9.64645434 9.82967382 -10.0173608 8.59026727 -9.9375 5.875 C-9 4 -9 4 -6.6875 2.875 C-5.800625 2.58625 -4.91375 2.2975 -4 2 C-2.65949948 1.34786461 -1.32338632 0.68620031 0 0 Z " fill="#D8D8DB" transform="translate(211,312)"/>
<path d="M0 0 C1.32 0.66 2.64 1.32 4 2 C1.20625471 6.19061794 -2.54191691 7.85351555 -7 10 C-7 11.32 -7 12.64 -7 14 C-6.360625 14.0825 -5.72125 14.165 -5.0625 14.25 C-0.79458483 15.29520372 3.03107667 17.14091826 7 19 C5.453125 19.71484375 5.453125 19.71484375 3 20 C0.46142115 18.94608774 -1.84495527 17.86034426 -4.25 16.5625 C-4.8996875 16.22412109 -5.549375 15.88574219 -6.21875 15.53710938 C-7.81814494 14.70213113 -9.40985859 13.85246886 -11 13 C-10.67 11.35 -10.34 9.7 -10 8 C-9.34 8 -8.68 8 -8 8 C-7.79375 7.4225 -7.5875 6.845 -7.375 6.25 C-5.50249112 3.18589456 -3.03041481 1.84460032 0 0 Z " fill="#3684AC" transform="translate(220,234)"/>
<path d="M0 0 C8.2425317 -0.26305952 15.91191011 0.39385449 24 2 C24 2.66 24 3.32 24 4 C17.6 5.23076923 17.6 5.23076923 14.5625 4.0625 C14.046875 3.711875 13.53125 3.36125 13 3 C12.67 3.66 12.34 4.32 12 5 C7.52459016 6.26229508 7.52459016 6.26229508 5 5 C5 4.34 5 3.68 5 3 C3.35 2.67 1.7 2.34 0 2 C0 1.34 0 0.68 0 0 Z " fill="#A973ED" transform="translate(239,105)"/>
<path d="M0 0 C1.9375 0.75 1.9375 0.75 4 2 C4.33333333 3.33333333 4.66666667 4.66666667 5 6 C6.9837767 7.28436734 6.9837767 7.28436734 9 8 C7.03681826 11.53372712 4.95929119 14.24479785 2 17 C1.87625 16.360625 1.7525 15.72125 1.625 15.0625 C1.41875 14.381875 1.2125 13.70125 1 13 C0.34 12.67 -0.32 12.34 -1 12 C-1 11.34 -1 10.68 -1 10 C-0.01 10 0.98 10 2 10 C2.33 9.01 2.66 8.02 3 7 C0.69 6.67 -1.62 6.34 -4 6 C-1.125 1.125 -1.125 1.125 0 0 Z " fill="#D0D0D2" transform="translate(266,293)"/>
<path d="M0 0 C0.02725341 1.7290774 0.04650987 3.45828176 0.0625 5.1875 C0.07410156 6.15042969 0.08570313 7.11335937 0.09765625 8.10546875 C0.00486622 10.85576513 -0.37888315 13.32479591 -1 16 C-1.33 16 -1.66 16 -2 16 C-2 14.02 -2 12.04 -2 10 C-4.49361571 11.20381448 -6.68143083 12.45428722 -9 14 C-9.99 13.67 -10.98 13.34 -12 13 C-10.46563424 9.34435261 -8.25017578 7.01301377 -5.4375 4.25 C-4.63183594 3.45078125 -3.82617188 2.6515625 -2.99609375 1.828125 C-1 0 -1 0 0 0 Z " fill="#143C6F" transform="translate(325,178)"/>
<path d="M0 0 C2 1.375 2 1.375 4 3 C4 3.66 4 4.32 4 5 C4.66 5 5.32 5 6 5 C6 5.66 6 6.32 6 7 C6.66 7 7.32 7 8 7 C7.67 7.66 7.34 8.32 7 9 C5 9 5 9 3.375 7.625 C2 6 2 6 2 4 C1.01 4 0.02 4 -1 4 C-1 7.3 -1 10.6 -1 14 C-1.99 14 -2.98 14 -4 14 C-5.60546875 12.25 -5.60546875 12.25 -7.1875 10 C-7.71730469 9.2575 -8.24710937 8.515 -8.79296875 7.75 C-9.19128906 7.1725 -9.58960938 6.595 -10 6 C-9.01 6 -8.02 6 -7 6 C-6.67 5.34 -6.34 4.68 -6 4 C-5.34 4 -4.68 4 -4 4 C-3.67 3.34 -3.34 2.68 -3 2 C-2.01 2 -1.02 2 0 2 C0 1.34 0 0.68 0 0 Z " fill="#7241D8" transform="translate(308,295)"/>
<path d="M0 0 C0.99 0.66 1.98 1.32 3 2 C2.62488281 2.46148437 2.24976563 2.92296875 1.86328125 3.3984375 C-5.19327106 12.39243112 -8.68865296 20.6088959 -10 32 C-10.33 32 -10.66 32 -11 32 C-11.92470553 27.28400182 -12.22923777 24.32734391 -10 20 C-10.99 20.33 -11.98 20.66 -13 21 C-13 18 -13 18 -11.625 16.3125 C-10 15 -10 15 -8 15 C-7.855625 14.38125 -7.71125 13.7625 -7.5625 13.125 C-7 11 -7 11 -6 9 C-5.34 9 -4.68 9 -4 9 C-3.71125 7.88625 -3.4225 6.7725 -3.125 5.625 C-2 2 -2 2 0 0 Z " fill="#7447ED" transform="translate(211,142)"/>
<path d="M0 0 C0.66 1.32 1.32 2.64 2 4 C-0.4842557 6.55523444 -2.86290411 8.9002939 -5.75 11 C-8.35148596 13.31243196 -8.71611066 14.59332791 -9 18 C-10.98 18.33 -12.96 18.66 -15 19 C-14.01 15.535 -14.01 15.535 -13 12 C-12.34 12 -11.68 12 -11 12 C-11 11.34 -11 10.68 -11 10 C-9.34467377 8.98133771 -7.67739862 7.98189187 -6 7 C-5.67 6.34 -5.34 5.68 -5 5 C-4.34 5 -3.68 5 -3 5 C-2.690625 4.360625 -2.38125 3.72125 -2.0625 3.0625 C-1 1 -1 1 0 0 Z " fill="#6C4DDA" transform="translate(184,176)"/>
<path d="M0 0 C0.721875 0.53625 1.44375 1.0725 2.1875 1.625 C1.1975 3.605 0.2075 5.585 -0.8125 7.625 C-1.8025 6.965 -2.7925 6.305 -3.8125 5.625 C-6.49254202 5.38452354 -9.07804203 5.25226502 -11.76171875 5.2109375 C-12.53433548 5.19157135 -13.30695221 5.1722052 -14.10298157 5.1522522 C-16.5685424 5.09251521 -19.03415007 5.04609514 -21.5 5 C-23.1725463 4.96181475 -24.84507305 4.92276269 -26.51757812 4.8828125 C-30.61572647 4.78681867 -34.71396688 4.70276623 -38.8125 4.625 C-38.8125 4.295 -38.8125 3.965 -38.8125 3.625 C-28.2525 3.625 -17.6925 3.625 -6.8125 3.625 C-7.1425 2.635 -7.4725 1.645 -7.8125 0.625 C-4.49183748 -1.17764537 -3.49974382 -1.71098587 0 0 Z " fill="#8C8B8D" transform="translate(135.8125,298.375)"/>
<path d="M0 0 C0.66 0 1.32 0 2 0 C2 0.66 2 1.32 2 2 C4.475 2.99 4.475 2.99 7 4 C6.625 6.4375 6.625 6.4375 6 9 C5.01 9.495 5.01 9.495 4 10 C3.34227572 13.02934491 3.34227572 13.02934491 3 16 C0.60880279 13.60880279 0.40287205 12.30355083 0 9 C0.33 8.01 0.66 7.02 1 6 C-0.32 6.33 -1.64 6.66 -3 7 C-2.67 5.35 -2.34 3.7 -2 2 C-1.34 2 -0.68 2 0 2 C0 1.34 0 0.68 0 0 Z " fill="#5C36D8" transform="translate(311,320)"/>
<path d="M0 0 C0.66 0 1.32 0 2 0 C2 0.99 2 1.98 2 3 C2.63808594 3.06058594 3.27617187 3.12117187 3.93359375 3.18359375 C4.75988281 3.26738281 5.58617187 3.35117188 6.4375 3.4375 C7.67306641 3.55931641 7.67306641 3.55931641 8.93359375 3.68359375 C11 4 11 4 12 5 C14.33297433 5.04092937 16.66705225 5.04241723 19 5 C19.33 5.99 19.66 6.98 20 8 C21.99665314 9.68538601 21.99665314 9.68538601 24 11 C15.02848057 10.95865659 7.95334033 7.74746727 0 4 C0 2.68 0 1.36 0 0 Z " fill="#35AFF3" transform="translate(213,244)"/>
<path d="M0 0 C1.32 1.32 2.64 2.64 4 4 C2.68 4 1.36 4 0 4 C-0.33623796 5.2909136 -0.66889249 6.58276097 -1 7.875 C-1.185625 8.59429687 -1.37125 9.31359375 -1.5625 10.0546875 C-2.07313965 11.99289317 -2.07313965 11.99289317 -2 14 C-1.01 14 -0.02 14 1 14 C1.33 14.99 1.66 15.98 2 17 C6.29 17.33 10.58 17.66 15 18 C15.33 17.34 15.66 16.68 16 16 C16 16.99 16 17.98 16 19 C2.91300448 20.38026906 2.91300448 20.38026906 -1.77734375 16.99609375 C-3.72267743 14.74823078 -5.43264545 12.52379136 -7 10 C-5.68 9.34 -4.36 8.68 -3 8 C-3 6.35 -3 4.7 -3 3 C-2.01 2.67 -1.02 2.34 0 2 C0 1.34 0 0.68 0 0 Z " fill="#348FD8" transform="translate(339,324)"/>
<path d="M0 0 C0.66 0.33 1.32 0.66 2 1 C1.1875 3.9375 1.1875 3.9375 0 7 C-0.99 7.33 -1.98 7.66 -3 8 C-3.6837045 9.32467746 -4.34964186 10.65863633 -5 12 C-5.99 12.66 -6.98 13.32 -8 14 C-8.57748803 15.96361864 -8.57748803 15.96361864 -8.6875 18.125 C-8.790625 19.40375 -8.89375 20.6825 -9 22 C-9.99 21.34 -10.98 20.68 -12 20 C-12.6017279 16.70163965 -12.21252145 15.3301304 -10.390625 12.5 C-9.68421875 11.675 -8.9778125 10.85 -8.25 10 C-7.55390625 9.175 -6.8578125 8.35 -6.140625 7.5 C-5.43421875 6.675 -4.7278125 5.85 -4 5 C-2.66104368 3.33784732 -1.32603629 1.6724782 0 0 Z " fill="#5F97BB" transform="translate(339,292)"/>
<path d="M0 0 C0.66 0.33 1.32 0.66 2 1 C2 1.66 2 2.32 2 3 C2.66 3 3.32 3 4 3 C4.33 4.32 4.66 5.64 5 7 C5.66 7 6.32 7 7 7 C7 7.66 7 8.32 7 9 C6.01 9.33 5.02 9.66 4 10 C1.1402267 8.48600237 0.17358278 7.54745338 -0.8125 4.4375 C-1 2 -1 2 0 0 Z M-3 9 C-1.35 9 0.3 9 2 9 C1.649375 9.78375 1.29875 10.5675 0.9375 11.375 C0.628125 12.24125 0.31875 13.1075 0 14 C0.33 14.66 0.66 15.32 1 16 C0.34 16.66 -0.32 17.32 -1 18 C-1 17.34 -1 16.68 -1 16 C-1.66 16 -2.32 16 -3 16 C-4.625 13.5 -4.625 13.5 -6 11 C-5.01 10.67 -4.02 10.34 -3 10 C-3 9.67 -3 9.34 -3 9 Z " fill="#C0BFC2" transform="translate(245,301)"/>
<path d="M0 0 C0.99 0 1.98 0 3 0 C3 0.66 3 1.32 3 2 C3.78375 2.268125 4.5675 2.53625 5.375 2.8125 C8 4 8 4 10 7 C9.67 7.99 9.34 8.98 9 10 C8.34 9.34 7.68 8.68 7 8 C6.34 8.66 5.68 9.32 5 10 C2.375 10.125 2.375 10.125 0 10 C-1.125 3.375 -1.125 3.375 0 0 Z " fill="#7040F0" transform="translate(307,299)"/>
<path d="M0 0 C5.75 -0.125 5.75 -0.125 8 1 C8.36923077 6.41538462 8.36923077 6.41538462 6.5 9.375 C6.005 9.91125 5.51 10.4475 5 11 C4.01 10.34 3.02 9.68 2 9 C2 8.01 2 7.02 2 6 C1.01 5.67 0.02 5.34 -1 5 C-0.67 3.35 -0.34 1.7 0 0 Z " fill="#1E77CF" transform="translate(310,208)"/>
<path d="M0 0 C0.99 0 1.98 0 3 0 C3.66 0.66 4.32 1.32 5 2 C5.33 1.34 5.66 0.68 6 0 C6.99 0 7.98 0 9 0 C9 2.64 9 5.28 9 8 C6 8 6 8 3 7 C3 7.66 3 8.32 3 9 C2.01 8.67 1.02 8.34 0 8 C0 5.36 0 2.72 0 0 Z " fill="#5D5D63" transform="translate(154,359)"/>
<path d="M0 0 C0.33 0.66 0.66 1.32 1 2 C1.66 2 2.32 2 3 2 C4.38232443 3.62626404 5.71937515 5.2925002 7 7 C6 8 6 8 3.71484375 8.09765625 C2.34005859 8.08025391 2.34005859 8.08025391 0.9375 8.0625 C0.01839844 8.05347656 -0.90070313 8.04445313 -1.84765625 8.03515625 C-2.55792969 8.02355469 -3.26820313 8.01195312 -4 8 C-5.0625 6.1875 -5.0625 6.1875 -6 4 C-5.67 3.01 -5.34 2.02 -5 1 C-4.01 1 -3.02 1 -2 1 C-1.34 0.67 -0.68 0.34 0 0 Z " fill="#2A91EB" transform="translate(345,334)"/>
<path d="M0 0 C3.73639216 1.24546405 4.18756513 2.63404953 6 6 C4.85546875 7.48828125 4.85546875 7.48828125 3 9 C0.30078125 9.29296875 0.30078125 9.29296875 -2.6875 9.1875 C-3.68136719 9.16042969 -4.67523438 9.13335937 -5.69921875 9.10546875 C-6.45847656 9.07066406 -7.21773438 9.03585937 -8 9 C-7.1953125 7.046875 -7.1953125 7.046875 -6 5 C-2.875 4.25 -2.875 4.25 0 4 C0 2.68 0 1.36 0 0 Z " fill="#854DF6" transform="translate(303,333)"/>
<path d="M0 0 C0.66 0.33 1.32 0.66 2 1 C-1.75 6.875 -1.75 6.875 -4 8 C-4.72159424 9.64363134 -5.39351421 11.31050386 -6 13 C-6.66 13 -7.32 13 -8 13 C-8.33 13.99 -8.66 14.98 -9 16 C-12.0625 17.6875 -12.0625 17.6875 -15 19 C-11.58647072 11.60401989 -5.84611401 5.56093772 0 0 Z " fill="#6A41BF" transform="translate(201,121)"/>
<path d="M0 0 C1.32 0.33 2.64 0.66 4 1 C5.33981486 0.6937566 6.67511887 0.36548445 8 0 C9 1 9 1 9.125 3.9375 C9 7 9 7 8 9 C7.34 9 6.68 9 6 9 C5.67 8.34 5.34 7.68 5 7 C4.01 7 3.02 7 2 7 C2 7.66 2 8.32 2 9 C1.34 9 0.68 9 0 9 C0 6.03 0 3.06 0 0 Z " fill="#63666A" transform="translate(350,359)"/>
<path d="M0 0 C0.66 1.32 1.32 2.64 2 4 C1.67 4.99 1.34 5.98 1 7 C-0.32 6.67 -1.64 6.34 -3 6 C-3.45375 7.134375 -3.9075 8.26875 -4.375 9.4375 C-6 13 -6 13 -8 14 C-8 13.01 -8 12.02 -8 11 C-9.65 11.33 -11.3 11.66 -13 12 C-11.68 9.69 -10.36 7.38 -9 5 C-8.67 5.66 -8.34 6.32 -8 7 C-4.04 3.535 -4.04 3.535 0 0 Z " fill="#1777DF" transform="translate(302,201)"/>
<path d="M0 0 C3.3 0.66 6.6 1.32 10 2 C9.34 3.32 8.68 4.64 8 6 C6.35 6 4.7 6 3 6 C3 6.99 3 7.98 3 9 C2.01 9 1.02 9 0 9 C-0.33 8.01 -0.66 7.02 -1 6 C-1.66 5.67 -2.32 5.34 -3 5 C-2.01 3.35 -1.02 1.7 0 0 Z " fill="#65C2FC" transform="translate(336,301)"/>
<path d="M0 0 C2.33944736 0.28730055 4.6739143 0.61936779 7 1 C7.1875 3.875 7.1875 3.875 7 7 C4 9 4 9 1.3125 8.625 C0.549375 8.41875 -0.21375 8.2125 -1 8 C-1.04241723 5.66705225 -1.04092937 3.33297433 -1 1 C-0.67 0.67 -0.34 0.34 0 0 Z M2 3 C2 3.99 2 4.98 2 6 C2.66 6 3.32 6 4 6 C4 5.01 4 4.02 4 3 C3.34 3 2.68 3 2 3 Z " fill="#4C4C50" transform="translate(372,359)"/>
<path d="M0 0 C3.125 0.375 3.125 0.375 6 1 C6.6875 3.3125 6.6875 3.3125 7 6 C5.8125 7.875 5.8125 7.875 4 9 C1.67511119 8.7181953 0.09107165 8.04553582 -2 7 C-2.125 4.625 -2.125 4.625 -2 2 C-1.34 1.34 -0.68 0.68 0 0 Z M1 3 C1 3.99 1 4.98 1 6 C1.99 5.67 2.98 5.34 4 5 C4 4.34 4 3.68 4 3 C3.01 3 2.02 3 1 3 Z " fill="#585860" transform="translate(296,359)"/>
<path d="M0 0 C2.43868168 -0.1079859 4.87259133 -0.18726589 7.3125 -0.25 C8.00279297 -0.28351563 8.69308594 -0.31703125 9.40429688 -0.3515625 C11.42578125 -0.390625 11.42578125 -0.390625 15 0 C16.98046875 2.015625 16.98046875 2.015625 18 4 C17.01 4.495 17.01 4.495 16 5 C15.01 4.67 14.02 4.34 13 4 C13 3.34 13 2.68 13 2 C10.03 1.67 7.06 1.34 4 1 C4.33 2.65 4.66 4.3 5 6 C6.32 6 7.64 6 9 6 C8.67 7.32 8.34 8.64 8 10 C6.2925002 8.71937515 4.62626404 7.38232443 3 6 C3 5.34 3 4.68 3 4 C2.34 4 1.68 4 1 4 C0.67 2.68 0.34 1.36 0 0 Z " fill="#7754B2" transform="translate(290,291)"/>
<path d="M0 0 C9.24 0 18.48 0 28 0 C28 0.33 28 0.66 28 1 C25.29178874 1.16888623 22.58345903 1.33517601 19.875 1.5 C18.73417969 1.57154297 18.73417969 1.57154297 17.5703125 1.64453125 C13.3724967 1.89784772 9.20798902 2.05377622 5 2 C5.33 2.99 5.66 3.98 6 5 C2.25 6.125 2.25 6.125 0 5 C0 3.33333333 0 1.66666667 0 0 Z " fill="#4DB9F4" transform="translate(222,234)"/>
<path d="M0 0 C0.6875 2.3125 0.6875 2.3125 1 5 C-0.1875 6.875 -0.1875 6.875 -2 8 C-4.13745922 7.74853421 -5.45925779 7.54074221 -7 6 C-7.04080783 4.00041636 -7.04254356 1.99954746 -7 0 C-4.3333581 -1.33332095 -2.83319697 -0.67102033 0 0 Z M-4 2 C-4 2.99 -4 3.98 -4 5 C-3.34 5 -2.68 5 -2 5 C-2 4.01 -2 3.02 -2 2 C-2.66 2 -3.32 2 -4 2 Z " fill="#6A6C70" transform="translate(150,360)"/>
<path d="M0 0 C2.33333333 0 4.66666667 0 7 0 C7 2.64 7 5.28 7 8 C6.01 8.33 5.02 8.66 4 9 C3.67 8.34 3.34 7.68 3 7 C2.67 7.66 2.34 8.32 2 9 C1.34 9 0.68 9 0 9 C0 6.03 0 3.06 0 0 Z " fill="#66676F" transform="translate(268,359)"/>
<path d="M0 0 C1.65 0 3.3 0 5 0 C5 0.66 5 1.32 5 2 C-2.07076635 5.24226342 -8.19673706 7.60983685 -16 8 C-13 6 -13 6 -10 6 C-10.33 5.01 -10.66 4.02 -11 3 C-10.67 2.67 -10.34 2.34 -10 2 C-8.30858344 2.08963062 -6.62040398 2.24577676 -4.9375 2.4375 C-3.55884766 2.59025391 -3.55884766 2.59025391 -2.15234375 2.74609375 C-1.44207031 2.82988281 -0.73179687 2.91367188 0 3 C0 2.01 0 1.02 0 0 Z " fill="#287FBE" transform="translate(278,249)"/>
<path d="M0 0 C-1.43550823 3.28848568 -3.23613521 5.39927605 -5.75 7.9375 C-10.64888519 13.28336377 -13.28335484 19.34216129 -16 26 C-17.2240978 23.11112919 -17.02264647 22.05734548 -15.84765625 19.08203125 C-5.42891278 0 -5.42891278 0 0 0 Z " fill="#281868" transform="translate(219,140)"/>
<path d="M0 0 C4.55555556 0.55555556 4.55555556 0.55555556 6 2 C6.04063832 3.66617115 6.042721 5.33388095 6 7 C3.6875 8.125 3.6875 8.125 1 9 C0.01 8.34 -0.98 7.68 -2 7 C-2.3125 4.5 -2.3125 4.5 -2 2 C-1.34 1.34 -0.68 0.68 0 0 Z M0 3 C0.33 3.99 0.66 4.98 1 6 C1.66 6 2.32 6 3 6 C3 5.01 3 4.02 3 3 C2.01 3 1.02 3 0 3 Z " fill="#56565E" transform="translate(258,359)"/>
<path d="M0 0 C1.98 0 3.96 0 6 0 C6 2.97 6 5.94 6 9 C4.33388095 9.042721 2.66617115 9.04063832 1 9 C0 8 0 8 -0.09765625 6.15234375 C-0.06510417 4.1015625 -0.03255208 2.05078125 0 0 Z " fill="#66686D" transform="translate(186,359)"/>
<path d="M0 0 C1.98 0 3.96 0 6 0 C6 2.97 6 5.94 6 9 C4.33388095 9.042721 2.66617115 9.04063832 1 9 C0 8 0 8 -0.09765625 6.15234375 C-0.06510417 4.1015625 -0.03255208 2.05078125 0 0 Z " fill="#5D5E66" transform="translate(362,359)"/>
<path d="M0 0 C0.125 2.875 0.125 2.875 0 6 C-0.66 6.66 -1.32 7.32 -2 8 C-4.125 7.625 -4.125 7.625 -6 7 C-6.68707555 4.50935112 -7 2.62113708 -7 0 C-4.3333581 -1.33332095 -2.83319697 -0.67102033 0 0 Z " fill="#58595D" transform="translate(208,360)"/>
<path d="M0 0 C-1.51671964 4.55015893 -5.16891053 6.50057264 -9 9 C-10.32 8.34 -11.64 7.68 -13 7 C-12.34 5.35 -11.68 3.7 -11 2 C-10.4225 2.226875 -9.845 2.45375 -9.25 2.6875 C-6.89558235 3.27412216 -6.89558235 3.27412216 -4.9375 1.5625 C-3 0 -3 0 0 0 Z " fill="#144994" transform="translate(323,188)"/>
<path d="M0 0 C0.5534764 2.07553648 1 3.84365964 1 6 C-2 8 -2 8 -4.125 7.6875 C-6 7 -6 7 -7 6 C-7.04080783 4.00041636 -7.04254356 1.99954746 -7 0 C-4.3333581 -1.33332095 -2.83319697 -0.67102033 0 0 Z M-5 2 C-4.67 2.99 -4.34 3.98 -4 5 C-3.01 4.67 -2.02 4.34 -1 4 C-1.33 3.34 -1.66 2.68 -2 2 C-2.99 2 -3.98 2 -5 2 Z " fill="#505057" transform="translate(313,360)"/>
<path d="M0 0 C3.24208567 0.35049575 4.61527704 0.56221181 6.8125 3.0625 C7.204375 3.701875 7.59625 4.34125 8 5 C7.01 5.495 7.01 5.495 6 6 C6 5.34 6 4.68 6 4 C4.02 4 2.04 4 0 4 C-0.33 5.98 -0.66 7.96 -1 10 C-0.01 10 0.98 10 2 10 C1.34 11.32 0.68 12.64 0 14 C-2.0625 12.4375 -2.0625 12.4375 -4 10 C-3.75 6.25 -3.75 6.25 -3 3 C-2.34 3 -1.68 3 -1 3 C-0.67 2.01 -0.34 1.02 0 0 Z " fill="#3E76AD" transform="translate(331,319)"/>
<path d="M0 0 C12.21 0 24.42 0 37 0 C36.67 0.66 36.34 1.32 36 2 C25.77 1.67 15.54 1.34 5 1 C4.34 2.32 3.68 3.64 3 5 C2.01 3.35 1.02 1.7 0 0 Z " fill="#8297ED" transform="translate(289,147)"/>
<path d="M0 0 C1.32 0.33 2.64 0.66 4 1 C4 1.66 4 2.32 4 3 C3.34 3 2.68 3 2 3 C2 3.66 2 4.32 2 5 C0.13671875 6.7265625 0.13671875 6.7265625 -2.3125 8.625 C-3.11300781 9.25664063 -3.91351563 9.88828125 -4.73828125 10.5390625 C-7 12 -7 12 -10 12 C-9.3125 9.625 -9.3125 9.625 -8 7 C-6.33927151 6.31867549 -4.672233 5.65257873 -3 5 C-1.17380913 2.48635244 -1.17380913 2.48635244 0 0 Z " fill="#C4AAF4" transform="translate(287,116)"/>
<path d="M0 0 C1.67542976 0.28604898 3.34385343 0.61781233 5 1 C5.625 3.875 5.625 3.875 6 7 C5.34 7.66 4.68 8.32 4 9 C0.46428571 8.46428571 0.46428571 8.46428571 -1 7 C-1.125 4 -1.125 4 -1 1 C-0.67 0.67 -0.34 0.34 0 0 Z " fill="#606069" transform="translate(241,359)"/>
<path d="M0 0 C1.32 0.33 2.64 0.66 4 1 C4.66 3.31 5.32 5.62 6 8 C5.01 8.33 4.02 8.66 3 9 C3 8.34 3 7.68 3 7 C2.01 7 1.02 7 0 7 C0 7.66 0 8.32 0 9 C-0.99 8.67 -1.98 8.34 -3 8 C-2.01 5.36 -1.02 2.72 0 0 Z " fill="#6C6C72" transform="translate(213,359)"/>
<path d="M0 0 C0.391875 0.495 0.78375 0.99 1.1875 1.5 C3.55091715 3.45593143 5.01435003 3.24207973 8 3 C7.01 4.98 6.02 6.96 5 9 C4.67 8.34 4.34 7.68 4 7 C3.38125 7.185625 2.7625 7.37125 2.125 7.5625 C0 8 0 8 -2 7 C-2.625 4.4375 -2.625 4.4375 -3 2 C-2.01 1.34 -1.02 0.68 0 0 Z " fill="#D1D1D3" transform="translate(382,314)"/>
<path d="M0 0 C0.99 0 1.98 0 3 0 C2 2 1 4 0 6 C-0.66 6 -1.32 6 -2 6 C-2.66 7.32 -3.32 8.64 -4 10 C-6.25245881 7.31158141 -7.88213958 5.35358125 -9 2 C-7.68 2 -6.36 2 -5 2 C-4.67 2.66 -4.34 3.32 -4 4 C-3.34 3.01 -2.68 2.02 -2 1 C-1.34 1.33 -0.68 1.66 0 2 C0 1.34 0 0.68 0 0 Z " fill="#68ACCD" transform="translate(351,293)"/>
<path d="M0 0 C0.33 0 0.66 0 1 0 C0.96519531 0.77085937 0.93039063 1.54171875 0.89453125 2.3359375 C0.86746094 3.33882812 0.84039062 4.34171875 0.8125 5.375 C0.77769531 6.37273437 0.74289063 7.37046875 0.70703125 8.3984375 C0.85205078 9.68621094 0.85205078 9.68621094 1 11 C1.99 11.66 2.98 12.32 4 13 C3.01 13.66 2.02 14.32 1 15 C0.63637182 17.20725073 0.63637182 17.20725073 0.8125 19.625 C0.83957031 20.44226563 0.86664063 21.25953125 0.89453125 22.1015625 C0.92933594 22.72804687 0.96414062 23.35453125 1 24 C0.01 24.33 -0.98 24.66 -2 25 C-2.27733386 16.4488728 -1.52016163 8.41518047 0 0 Z " fill="#3B2589" transform="translate(177,160)"/>
<path d="M0 0 C1.32 0.66 2.64 1.32 4 2 C3.649375 2.94875 3.29875 3.8975 2.9375 4.875 C1.64973223 7.87060172 1.64973223 7.87060172 3 10 C2.01 10.33 1.02 10.66 0 11 C0 11.99 0 12.98 0 14 C-0.31421071 16.00309329 -0.6451046 18.00371336 -1 20 C-1.66 20 -2.32 20 -3 20 C-2.22095672 6.3667426 -2.22095672 6.3667426 0 0 Z " fill="#5631C6" transform="translate(180,150)"/>
<path d="M0 0 C0.67958771 0.02361099 1.35917542 0.04722198 2.05935669 0.07154846 C4.2090904 0.14752352 6.35840187 0.23182742 8.5078125 0.31640625 C9.97393835 0.36969341 11.44008419 0.42243324 12.90625 0.47460938 C16.48202402 0.60304738 20.05746857 0.73895181 23.6328125 0.87890625 C23.6328125 1.20890625 23.6328125 1.53890625 23.6328125 1.87890625 C22.2415918 1.91649048 22.2415918 1.91649048 20.82226562 1.95483398 C17.34820711 2.05053987 13.8742833 2.14973535 10.40039062 2.2512207 C8.90303376 2.29426488 7.40563737 2.33595826 5.90820312 2.3762207 C3.74336894 2.43467123 1.57872816 2.49814078 -0.5859375 2.5625 C-2.5340332 2.61748657 -2.5340332 2.61748657 -4.52148438 2.67358398 C-8.52021893 2.88707661 -12.4015001 3.33690325 -16.3671875 3.87890625 C-14.58902808 1.60681366 -13.56380587 0.92369737 -10.71044922 0.27368164 C-7.07619888 -0.15545395 -3.65681034 -0.13599708 0 0 Z " fill="#9E71ED" transform="translate(250.3671875,126.12109375)"/>
<path d="M0 0 C1.98 0 3.96 0 6 0 C5.835 0.7425 5.67 1.485 5.5 2.25 C4.88074304 5.19006578 4.88074304 5.19006578 5 9 C3.35 9 1.7 9 0 9 C0 6.03 0 3.06 0 0 Z " fill="#67686C" transform="translate(231,359)"/>
<path d="M0 0 C4.75 0.875 4.75 0.875 7 2 C7 4.31 7 6.62 7 9 C5.02 9 3.04 9 1 9 C1.33 7.68 1.66 6.36 2 5 C1.01 4.34 0.02 3.68 -1 3 C-0.67 2.01 -0.34 1.02 0 0 Z " fill="#EFEFF2" transform="translate(135,295)"/>
<path d="M0 0 C1.125 1.5 1.125 1.5 2 4 C1.57598348 6.7773082 0.81108065 9.29639783 0 12 C-0.61875 11.649375 -1.2375 11.29875 -1.875 10.9375 C-2.57625 10.628125 -3.2775 10.31875 -4 10 C-4.99 10.495 -4.99 10.495 -6 11 C-6.3125 8.75 -6.3125 8.75 -6 6 C-3.5625 3.8125 -3.5625 3.8125 -1 2 C-0.67 1.34 -0.34 0.68 0 0 Z " fill="#2166B0" transform="translate(322,192)"/>
<path d="M0 0 C3.86526773 1.4587471 4.97031959 3.24854146 6.6875 6.9375 C7.31205078 8.25041016 7.31205078 8.25041016 7.94921875 9.58984375 C9.58285635 13.33688613 10.11519198 16.1302176 10.0625 20.1875 C10.05347656 21.08855469 10.04445313 21.98960937 10.03515625 22.91796875 C10.02355469 23.60503906 10.01195312 24.29210937 10 25 C9.67 25 9.34 25 9 25 C8.77957031 23.92685547 8.77957031 23.92685547 8.5546875 22.83203125 C6.71529071 14.66045814 3.72985119 7.48384381 0 0 Z " fill="#212D6A" transform="translate(290,152)"/>
<path d="M0 0 C1.76462683 3.08809695 2 4.23312136 2 8 C4.31 8 6.62 8 9 8 C9 8.66 9 9.32 9 10 C4.71 10 0.42 10 -4 10 C-3.12686261 5.63431305 -2.34897511 3.57452735 0 0 Z " fill="#929298" transform="translate(366,333)"/>
<path d="M0 0 C0.66 1.32 1.32 2.64 2 4 C1.195625 4.763125 0.39125 5.52625 -0.4375 6.3125 C-3.16799024 8.79430898 -3.16799024 8.79430898 -4 12 C-5.98 12.33 -7.96 12.66 -10 13 C-7.94196512 9.39843896 -5.75464117 6.11007874 -3 3 C-2.34 3 -1.68 3 -1 3 C-0.67 2.01 -0.34 1.02 0 0 Z " fill="#5F3EB3" transform="translate(307,325)"/>
<path d="M0 0 C0.66 0 1.32 0 2 0 C2.33 1.65 2.66 3.3 3 5 C3.66 3.35 4.32 1.7 5 0 C5.66 0 6.32 0 7 0 C7.125 3.375 7.125 3.375 7 7 C6.34 7.66 5.68 8.32 5 9 C1.46428571 8.46428571 1.46428571 8.46428571 0 7 C-0.04092937 4.66702567 -0.04241723 2.33294775 0 0 Z " fill="#63646B" transform="translate(123,359)"/>
<path d="M0 0 C0.99 0 1.98 0 3 0 C4.49821059 3.37097383 5 5.20442119 5 9 C4.401875 8.814375 3.80375 8.62875 3.1875 8.4375 C0.83591238 7.77906313 0.83591238 7.77906313 -2 9 C-1.125 2.25 -1.125 2.25 0 0 Z " fill="#67686F" transform="translate(115,359)"/>
<path d="M0 0 C1.67542976 0.28604898 3.34385343 0.61781233 5 1 C5 2.98 5 4.96 5 7 C3.125 8.0625 3.125 8.0625 1 9 C0.34 8.67 -0.32 8.34 -1 8 C-1.04241723 5.66705225 -1.04092937 3.33297433 -1 1 C-0.67 0.67 -0.34 0.34 0 0 Z " fill="#66666F" transform="translate(286,359)"/>
<path d="M0 0 C3 1 3 1 4.1875 2.8125 C5 5 5 5 5 9 C4.236875 8.835 3.47375 8.67 2.6875 8.5 C-0.03596236 7.90854604 -0.03596236 7.90854604 -3 8 C-1.125 1.125 -1.125 1.125 0 0 Z " fill="#787883" transform="translate(169,359)"/>
<path d="M0 0 C1.485 0.99 1.485 0.99 3 2 C3.66 2.33 4.32 2.66 5 3 C5.33 3.33 5.66 3.66 6 4 C7.32 4 8.64 4 10 4 C10 5.32 10 6.64 10 8 C6.7 8 3.4 8 0 8 C0 5.36 0 2.72 0 0 Z " fill="#CDCCD2" transform="translate(163,334)"/>
<path d="M0 0 C3 1 3 1 4.25 2.8125 C5.11637742 5.33943414 4.88492145 6.52221994 4 9 C3.401875 8.835 2.80375 8.67 2.1875 8.5 C-0.11344336 7.8885876 -0.11344336 7.8885876 -3 8 C-1.125 1.125 -1.125 1.125 0 0 Z " fill="#5D5E62" transform="translate(326,359)"/>
<path d="M0 0 C2.63520741 2.40502363 4.40302943 5.0185849 6.25 8.0625 C7.06210937 9.37927734 7.06210937 9.37927734 7.890625 10.72265625 C8.25671875 11.47417969 8.6228125 12.22570312 9 13 C8.67 13.66 8.34 14.32 8 15 C5.13275314 14.42655063 4.1385485 14.1385485 2 12 C2.375 9.375 2.375 9.375 3 7 C2.01 7 1.02 7 0 7 C0 4.69 0 2.38 0 0 Z " fill="#ACABAF" transform="translate(420,323)"/>
<path d="M0 0 C0.99 0.99 1.98 1.98 3 3 C1.35 3.33 -0.3 3.66 -2 4 C-1.67 4.99 -1.34 5.98 -1 7 C-1.99 7.33 -2.98 7.66 -4 8 C-5.66710346 9.49985609 -5.66710346 9.49985609 -7 11 C-7.33 10.01 -7.66 9.02 -8 8 C-8.66 8 -9.32 8 -10 8 C-8.66398408 5.32796816 -6.93290412 4.49174069 -4.4375 2.875 C-3.61121094 2.33617187 -2.78492187 1.79734375 -1.93359375 1.2421875 C-1.29550781 0.83226562 -0.65742187 0.42234375 0 0 Z " fill="#B4B4B9" transform="translate(94,328)"/>
<path d="M0 0 C4.62 0 9.24 0 14 0 C11.75 5.625 11.75 5.625 9 8 C8.34 5.69 7.68 3.38 7 1 C4.36 1.33 1.72 1.66 -1 2 C-0.67 1.34 -0.34 0.68 0 0 Z " fill="#C9C8CD" transform="translate(268,291)"/>
<path d="M0 0 C0.33 0 0.66 0 1 0 C1.03738281 0.79921875 1.07476562 1.5984375 1.11328125 2.421875 C1.58206149 10.25326247 2.84033547 17.46154832 5 25 C2 24 2 24 1.015625 22.4609375 C-1.74082785 14.95100983 -0.85340945 7.80406957 0 0 Z " fill="#5554B1" transform="translate(199,176)"/>
<path d="M0 0 C0.99 0 1.98 0 3 0 C4.85776765 3.13498292 5.20140476 5.37471432 5 9 C4.34 9 3.68 9 3 9 C3 8.34 3 7.68 3 7 C2.01 7 1.02 7 0 7 C0 7.66 0 8.32 0 9 C-0.66 9 -1.32 9 -2 9 C-1.51421457 5.87709365 -1.0013988 3.00419641 0 0 Z " fill="#6B6E72" transform="translate(391,359)"/>
<path d="M0 0 C3 2 3 2 3.6875 4.125 C3.8421875 5.053125 3.8421875 5.053125 4 6 C2.35 6.33 0.7 6.66 -1 7 C-1 7.66 -1 8.32 -1 9 C-1.99 9 -2.98 9 -4 9 C-4 8.34 -4 7.68 -4 7 C-4.99 7 -5.98 7 -7 7 C-7 6.34 -7 5.68 -7 5 C-6.01 4.67 -5.02 4.34 -4 4 C-2.33289654 2.50014391 -2.33289654 2.50014391 -1 1 C-0.67 1.33 -0.34 1.66 0 2 C0 1.34 0 0.68 0 0 Z " fill="#633AE1" transform="translate(316,304)"/>
<path d="M0 0 C1.74965358 -0.05429959 3.49979787 -0.09292823 5.25 -0.125 C6.22453125 -0.14820312 7.1990625 -0.17140625 8.203125 -0.1953125 C11.0196498 0.00137219 12.60949036 0.55431084 15 2 C14.34 2 13.68 2 13 2 C12.67 2.66 12.34 3.32 12 4 C7.52459016 5.26229508 7.52459016 5.26229508 5 4 C5 3.34 5 2.68 5 2 C3.35 1.67 1.7 1.34 0 1 C0 0.67 0 0.34 0 0 Z " fill="#9D60F5" transform="translate(239,106)"/>
<path d="M0 0 C4.62 0 9.24 0 14 0 C14 0.66 14 1.32 14 2 C12.68 2 11.36 2 10 2 C10 2.66 10 3.32 10 4 C6.7 3.67 3.4 3.34 0 3 C0 2.01 0 1.02 0 0 Z " fill="#96CCE5" transform="translate(341,291)"/>
<path d="M0 0 C1.9490625 0.2475 1.9490625 0.2475 3.9375 0.5 C7.93845816 0.95222761 11.8269442 1.02528022 15.84765625 0.96875 C18.96603742 1.01402595 21.92822827 1.47714524 25 2 C25 2.33 25 2.66 25 3 C21.20847666 3.0867982 17.41720704 3.14032207 13.625 3.1875 C12.54476562 3.21263672 11.46453125 3.23777344 10.3515625 3.26367188 C8.8046875 3.27817383 8.8046875 3.27817383 7.2265625 3.29296875 C6.27346191 3.3086792 5.32036133 3.32438965 4.33837891 3.34057617 C3.56671387 3.22818604 2.79504883 3.1157959 2 3 C1.34 2.01 0.68 1.02 0 0 Z " fill="#4D54DD" transform="translate(173,213)"/>
<path d="M0 0 C5.94 0 11.88 0 18 0 C18 0.66 18 1.32 18 2 C12.06 2 6.12 2 0 2 C0 1.34 0 0.68 0 0 Z " fill="#3A5E75" transform="translate(410,362)"/>
<path d="M0 0 C5.94 0 11.88 0 18 0 C18 0.66 18 1.32 18 2 C12.06 2 6.12 2 0 2 C0 1.34 0 0.68 0 0 Z " fill="#292344" transform="translate(82,362)"/>
<path d="M0 0 C0.99 0 1.98 0 3 0 C3 0.66 3 1.32 3 2 C3.66 2 4.32 2 5 2 C5.33 3.32 5.66 4.64 6 6 C1.05 6 -3.9 6 -9 6 C-9 5.67 -9 5.34 -9 5 C-6.03 5 -3.06 5 0 5 C0 3.35 0 1.7 0 0 Z " fill="#88868F" transform="translate(214,337)"/>
<path d="M0 0 C1.09658936 3.28976808 0.79953138 4.71303767 0 8 C-0.66 8 -1.32 8 -2 8 C-1.67 9.32 -1.34 10.64 -1 12 C-1.99 12.495 -1.99 12.495 -3 13 C-4.3125 11 -4.3125 11 -5 8 C-3.65415238 5.09918899 -1.89777463 2.56645361 0 0 Z " fill="#BFBEC3" transform="translate(381,308)"/>
<path d="M0 0 C0.66 0.66 1.32 1.32 2 2 C1.625 5.625 1.625 5.625 1 9 C0.34 9 -0.32 9 -1 9 C-1.33 8.01 -1.66 7.02 -2 6 C-3.32 6.33 -4.64 6.66 -6 7 C-6 5.68 -6 4.36 -6 3 C-4.02 2.01 -2.04 1.02 0 0 Z " fill="#E5E5E8" transform="translate(211,312)"/>
<path d="M0 0 C1.134375 0.020625 2.26875 0.04125 3.4375 0.0625 C3.4375 0.7225 3.4375 1.3825 3.4375 2.0625 C2.4475 2.0625 1.4575 2.0625 0.4375 2.0625 C0.1075 3.0525 -0.2225 4.0425 -0.5625 5.0625 C-1.89583333 5.72916667 -3.22916667 6.39583333 -4.5625 7.0625 C-5.2225 6.4025 -5.8825 5.7425 -6.5625 5.0625 C-4.14811644 0.07277397 -4.14811644 0.07277397 0 0 Z " fill="#824AF0" transform="translate(304.5625,294.9375)"/>
<path d="M0 0 C-0.14213297 1.89611434 -0.28886907 3.79188394 -0.4375 5.6875 C-0.51871094 6.74324219 -0.59992188 7.79898438 -0.68359375 8.88671875 C-0.96451681 11.65086297 -1.40156852 14.28945741 -2 17 C-2.33 17 -2.66 17 -3 17 C-3.92470553 12.28400182 -4.22923777 9.32734391 -2 5 C-2.99 5.33 -3.98 5.66 -5 6 C-5 3 -5 3 -3.625 1.3125 C-2 0 -2 0 0 0 Z " fill="#6644CE" transform="translate(203,157)"/>
<path d="M0 0 C0.99 0.33 1.98 0.66 3 1 C3 2.65 3 4.3 3 6 C3.99 6 4.98 6 6 6 C6 6.99 6 7.98 6 9 C4.33388095 9.042721 2.66617115 9.04063832 1 9 C0 8 0 8 -0.09765625 6.15234375 C-0.06510417 4.1015625 -0.03255208 2.05078125 0 0 Z " fill="#5D5E62" transform="translate(334,359)"/>
<path d="M0 0 C1.4540625 0.0309375 1.4540625 0.0309375 2.9375 0.0625 C1.9475 3.0325 0.9575 6.0025 -0.0625 9.0625 C-0.7225 8.7325 -1.3825 8.4025 -2.0625 8.0625 C-2.79325648 5.7484378 -3.46388258 3.41421131 -4.0625 1.0625 C-3.0625 0.0625 -3.0625 0.0625 0 0 Z " fill="#66666C" transform="translate(137.0625,358.9375)"/>
<path d="M0 0 C0.66 0 1.32 0 2 0 C2 0.99 2 1.98 2 3 C2.62648437 3.02578125 3.25296875 3.0515625 3.8984375 3.078125 C5.12433594 3.16320312 5.12433594 3.16320312 6.375 3.25 C7.59316406 3.31960937 7.59316406 3.31960937 8.8359375 3.390625 C11 4 11 4 12.2890625 6.046875 C12.64097656 7.01367188 12.64097656 7.01367188 13 8 C8.15340923 7.40895235 4.39251833 6.02055843 0 4 C0 2.68 0 1.36 0 0 Z " fill="#40B7F3" transform="translate(213,244)"/>
<path d="M0 0 C0.66 0 1.32 0 2 0 C2.4375 2.125 2.4375 2.125 2 5 C-0.12689146 7.276147 -2.5023433 9.1458722 -5 11 C-4.46968862 6.4923533 -2.74778884 3.58045212 0 0 Z " fill="#4CA6F0" transform="translate(321,175)"/>
<path d="M0 0 C1.2065625 0.0309375 1.2065625 0.0309375 2.4375 0.0625 C2.4375 3.44273517 1.56294378 5.89718937 0.4375 9.0625 C-0.2225 8.7325 -0.8825 8.4025 -1.5625 8.0625 C-2.29325648 5.7484378 -2.96388258 3.41421131 -3.5625 1.0625 C-2.5625 0.0625 -2.5625 0.0625 0 0 Z " fill="#64646C" transform="translate(179.5625,358.9375)"/>
<path d="M0 0 C0.66 0.33 1.32 0.66 2 1 C1.44894091 4.9492568 0.61064629 8.34920174 -1 12 C-2.32 11.34 -3.64 10.68 -5 10 C-5 9.01 -5 8.02 -5 7 C-4.0409375 6.6596875 -4.0409375 6.6596875 -3.0625 6.3125 C-0.72806339 5.14749104 -0.72806339 5.14749104 -0.25 2.375 C-0.1675 1.59125 -0.085 0.8075 0 0 Z " fill="#4DA6FA" transform="translate(328,162)"/>
<path d="M0 0 C0.66 0.33 1.32 0.66 2 1 C0.7771055 5.89157798 -0.6477456 8.34618634 -5 11 C-5.99 10.67 -6.98 10.34 -8 10 C-7.4225 9.46375 -6.845 8.9275 -6.25 8.375 C-3.7852519 5.77332145 -1.9208988 3.01855526 0 0 Z " fill="#7F49E1" transform="translate(205,118)"/>
<path d="M0 0 C0.66 0.99 1.32 1.98 2 3 C-0.27700057 5.27700057 -1.41313098 5.52101692 -4.5 6.1875 C-5.2940625 6.36667969 -6.088125 6.54585938 -6.90625 6.73046875 C-9 7 -9 7 -11 6 C-7.37 4.02 -3.74 2.04 0 0 Z " fill="#744DB0" transform="translate(219,110)"/>
<path d="M0 0 C1.134375 0.020625 2.26875 0.04125 3.4375 0.0625 C3.7675 1.3825 4.0975 2.7025 4.4375 4.0625 C1.77083333 4.0625 -0.89583333 4.0625 -3.5625 4.0625 C-3.5625 4.7225 -3.5625 5.3825 -3.5625 6.0625 C-4.2225 5.7325 -4.8825 5.4025 -5.5625 5.0625 C-4.43693182 0.07784091 -4.43693182 0.07784091 0 0 Z " fill="#E9E9EC" transform="translate(408.5625,309.9375)"/>
<path d="M0 0 C3.42298577 1.14099526 4.14758766 2.00085621 6 5 C6 5.99 6 6.98 6 8 C3.69 8 1.38 8 -1 8 C-0.67 5.36 -0.34 2.72 0 0 Z " fill="#6391D8" transform="translate(206,208)"/>
<path d="M0 0 C0.99 0.33 1.98 0.66 3 1 C2.07038578 2.15224028 1.1309875 3.29659176 0.1875 4.4375 C-0.59560547 5.39462891 -0.59560547 5.39462891 -1.39453125 6.37109375 C-3 8 -3 8 -6 9 C-6.33 7.35 -6.66 5.7 -7 4 C-5.35 4 -3.7 4 -2 4 C-2 3.34 -2 2.68 -2 2 C-1.34 2 -0.68 2 0 2 C0 1.34 0 0.68 0 0 Z " fill="#5090BF" transform="translate(329,170)"/>
<path d="M0 0 C2.97 0.495 2.97 0.495 6 1 C5.67 4.96 5.34 8.92 5 13 C4.67 13 4.34 13 4 13 C3.79503906 12.31292969 3.59007812 11.62585938 3.37890625 10.91796875 C3.10949219 10.01691406 2.84007812 9.11585938 2.5625 8.1875 C2.16224609 6.84751953 2.16224609 6.84751953 1.75390625 5.48046875 C1.19612127 3.64526945 0.60655425 1.81966274 0 0 Z " fill="#607DED" transform="translate(296,159)"/>
<path d="M0 0 C2.64 0 5.28 0 8 0 C8 1.65 8 3.3 8 5 C5.03 4.67 2.06 4.34 -1 4 C-0.67 2.68 -0.34 1.36 0 0 Z " fill="#9A5DF5" transform="translate(231,107)"/>
<path d="M0 0 C0.66 0 1.32 0 2 0 C1.67 6.27 1.34 12.54 1 19 C0.67 19 0.34 19 0 19 C-0.69508823 12.48755792 -1.31909709 6.4489191 0 0 Z " fill="#7059E4" transform="translate(198,168)"/>
<path d="M0 0 C3.09310564 3.09310564 2.83904423 6.75662052 3 11 C2.5625 14.0625 2.5625 14.0625 2 16 C-0.14336161 12.5233662 -0.21277626 9.78770805 -0.125 5.75 C-0.10695313 4.67234375 -0.08890625 3.5946875 -0.0703125 2.484375 C-0.04710937 1.66453125 -0.02390625 0.8446875 0 0 Z " fill="#587FAD" transform="translate(331,153)"/>
<path d="M0 0 C2.475 0.495 2.475 0.495 5 1 C5.33 1.99 5.66 2.98 6 4 C10.29 4.33 14.58 4.66 19 5 C19.33 4.34 19.66 3.68 20 3 C20 3.99 20 4.98 20 6 C6.4529148 6.92017937 6.4529148 6.92017937 2.890625 4.6640625 C1.5625 3 1.5625 3 0 0 Z " fill="#1A4D79" transform="translate(335,337)"/>
<path d="M0 0 C0.99 0 1.98 0 3 0 C3 0.66 3 1.32 3 2 C3.99 2 4.98 2 6 2 C7.49821059 5.37097383 8 7.20442119 8 11 C6 10 6 10 5.125 8.1875 C4.0608235 5.84447898 4.0608235 5.84447898 1.875 3.875 C1.25625 3.25625 0.6375 2.6375 0 2 C0 1.34 0 0.68 0 0 Z " fill="#4E30A4" transform="translate(306,309)"/>
<path d="M0 0 C-1.26391488 1.00873016 -2.53640883 2.00671822 -3.8125 3 C-4.87404297 3.8353125 -4.87404297 3.8353125 -5.95703125 4.6875 C-8 6 -8 6 -11 6 C-11 5.01 -11 4.02 -11 3 C-9.68 3 -8.36 3 -7 3 C-7 2.01 -7 1.02 -7 0 C-3.98968256 -0.93423645 -3.13349732 -1.04449911 0 0 Z " fill="#2C83C1" transform="translate(295,243)"/>
<path d="M0 0 C0.66 0 1.32 0 2 0 C2 1.98 2 3.96 2 6 C3.32 6 4.64 6 6 6 C5.67 6.99 5.34 7.98 5 9 C3.35 9 1.7 9 0 9 C0 6.03 0 3.06 0 0 Z " fill="#7A7B80" transform="translate(222,359)"/>
<path d="M0 0 C0.99 0 1.98 0 3 0 C3.66 1.65 4.32 3.3 5 5 C2.36 5 -0.28 5 -3 5 C-1.125 1.125 -1.125 1.125 0 0 Z " fill="#2292F8" transform="translate(345,336)"/>
<path d="M0 0 C0.12375 0.639375 0.2475 1.27875 0.375 1.9375 C0.684375 2.9584375 0.684375 2.9584375 1 4 C1.66 4.33 2.32 4.66 3 5 C1.37660195 6.70884005 -0.29319053 8.37446717 -2 10 C-2.66 10 -3.32 10 -4 10 C-2.8905928 6.51329166 -1.73662334 3.22515763 0 0 Z " fill="#5E3ABD" transform="translate(185,140)"/>
<path d="M0 0 C0.99 0 1.98 0 3 0 C3 2.64 3 5.28 3 8 C2.01 8 1.02 8 0 8 C0 6.68 0 5.36 0 4 C-0.66 3.67 -1.32 3.34 -2 3 C-1.34 2.01 -0.68 1.02 0 0 Z " fill="#57585D" transform="translate(160,359)"/>
<path d="M0 0 C1.15518918 0.90484792 2.29885406 1.8244206 3.4375 2.75 C4.07558594 3.26046875 4.71367187 3.7709375 5.37109375 4.296875 C7.18810554 6.19667629 7.60423197 7.43586908 8 10 C5.00306862 9.00102287 3.97290587 8.34869747 2 6 C2 5.34 2 4.68 2 4 C1.34 4 0.68 4 0 4 C0 2.68 0 1.36 0 0 Z " fill="#3371AB" transform="translate(346,332)"/>
<path d="M0 0 C1.32 0.66 2.64 1.32 4 2 C2.35 3.98 0.7 5.96 -1 8 C-2.32 7.34 -3.64 6.68 -5 6 C-5 5.01 -5 4.02 -5 3 C-2.525 3.495 -2.525 3.495 0 4 C-0.33 3.01 -0.66 2.02 -1 1 C-0.67 0.67 -0.34 0.34 0 0 Z " fill="#498DB7" transform="translate(339,306)"/>
<path d="M0 0 C1.32 0.33 2.64 0.66 4 1 C4 1.66 4 2.32 4 3 C3.34 3 2.68 3 2 3 C1.67 3.66 1.34 4.32 1 5 C0 6 0 6 -3.5625 6.0625 C-4.696875 6.041875 -5.83125 6.02125 -7 6 C-5.6875 4.5 -5.6875 4.5 -4 3 C-3.01 3 -2.02 3 -1 3 C-0.67 2.01 -0.34 1.02 0 0 Z " fill="#4670F1" transform="translate(200,209)"/>
<path d="M0 0 C2 1.375 2 1.375 4 3 C4 3.66 4 4.32 4 5 C4.66 5 5.32 5 6 5 C6 5.66 6 6.32 6 7 C6.66 7 7.32 7 8 7 C7.67 7.66 7.34 8.32 7 9 C5 9 5 9 3.375 7.625 C2 6 2 6 2 4 C0.35 3.67 -1.3 3.34 -3 3 C-2.01 2.67 -1.02 2.34 0 2 C0 1.34 0 0.68 0 0 Z " fill="#623FB6" transform="translate(308,295)"/>
<path d="M0 0 C0.99 0 1.98 0 3 0 C1.55922954 3.36179774 -0.24750021 5.59156268 -3 8 C-3.66 8 -4.32 8 -5 8 C-5.33 7.01 -5.66 6.02 -6 5 C-5.195625 4.54625 -4.39125 4.0925 -3.5625 3.625 C-0.91143428 2.25274335 -0.91143428 2.25274335 0 0 Z " fill="#3086C7" transform="translate(300,234)"/>
<path d="M0 0 C-0.33 1.65 -0.66 3.3 -1 5 C-4.63 5.33 -8.26 5.66 -12 6 C-3 0 -3 0 0 0 Z " fill="#296DAC" transform="translate(278,224)"/>
<path d="M0 0 C1 2 1 2 0.0625 5.125 C-0.288125 6.07375 -0.63875 7.0225 -1 8 C-2.98 8 -4.96 8 -7 8 C-6.02133662 6.85373678 -5.04205413 5.70800212 -4.0625 4.5625 C-3.51722656 3.92441406 -2.97195313 3.28632813 -2.41015625 2.62890625 C-1.63204305 1.73008851 -0.84063472 0.84063472 0 0 Z " fill="#267EC6" transform="translate(288,214)"/>
<path d="M0 0 C2.18975773 3.28463659 2.99806563 6.20696275 4 10 C2.68 10.99 1.36 11.98 0 13 C0 8.71 0 4.42 0 0 Z " fill="#418CF0" transform="translate(301,177)"/>
<path d="M0 0 C0.33 0.99 0.66 1.98 1 3 C-3.455 4.485 -3.455 4.485 -8 6 C-7.67 4.68 -7.34 3.36 -7 2 C-4.69 1.34 -2.38 0.68 0 0 Z " fill="#3920AA" transform="translate(185,172)"/>
<path d="M0 0 C2.5 0.125 2.5 0.125 3.5 1.125 C3.54063832 2.79117115 3.542721 4.45888095 3.5 6.125 C3.17 5.135 2.84 4.145 2.5 3.125 C1.51 3.125 0.52 3.125 -0.5 3.125 C-0.83 4.115 -1.16 5.105 -1.5 6.125 C-2.16 4.475 -2.82 2.825 -3.5 1.125 C-2.5 0.125 -2.5 0.125 0 0 Z " fill="#6D6D79" transform="translate(374.5,358.875)"/>
<path d="M0 0 C0.66 0 1.32 0 2 0 C2 2.97 2 5.94 2 9 C1.01 8.67 0.02 8.34 -1 8 C-1.04241723 5.66705225 -1.04092937 3.33297433 -1 1 C-0.67 0.67 -0.34 0.34 0 0 Z " fill="#53535D" transform="translate(383,359)"/>
<path d="M0 0 C0 0.99 0 1.98 0 3 C-0.99 2.67 -1.98 2.34 -3 2 C-5.73289293 1.77202438 -8.45042204 1.58331813 -11.1875 1.4375 C-11.93708984 1.39431641 -12.68667969 1.35113281 -13.45898438 1.30664062 C-15.30578375 1.20077315 -17.15286834 1.0999024 -19 1 C-19 0.67 -19 0.34 -19 0 C-16.39619004 -0.19476139 -13.79224467 -0.38108614 -11.1875 -0.5625 C-10.44951172 -0.61857422 -9.71152344 -0.67464844 -8.95117188 -0.73242188 C-5.63211484 -0.95769724 -3.18767436 -1.06255812 0 0 Z " fill="#D8D8DA" transform="translate(204,301)"/>
<path d="M0 0 C0.8353125 0.556875 0.8353125 0.556875 1.6875 1.125 C1.6875 2.115 1.6875 3.105 1.6875 4.125 C-1.18387415 4.125 -3.5428041 3.85386734 -6.3125 3.125 C-6.6425 2.465 -6.9725 1.805 -7.3125 1.125 C-2.88173077 -1.09038462 -2.88173077 -1.09038462 0 0 Z " fill="#4928CA" transform="translate(188.3125,166.875)"/>
<path d="M0 0 C0.99 0.33 1.98 0.66 3 1 C3 3.31 3 5.62 3 8 C2.01 8 1.02 8 0 8 C0 5.36 0 2.72 0 0 Z " fill="#5C5D62" transform="translate(317,359)"/>
<path d="M0 0 C0.598125 0.309375 1.19625 0.61875 1.8125 0.9375 C4.08956772 2.10209704 4.08956772 2.10209704 7 3 C5.35 4.32 3.7 5.64 2 7 C1.34 6.67 0.68 6.34 0 6 C0.33 5.34 0.66 4.68 1 4 C0.34 3.67 -0.32 3.34 -1 3 C-0.67 2.01 -0.34 1.02 0 0 Z " fill="#ABAAAF" transform="translate(135,335)"/>
<path d="M0 0 C2.12508244 3.18762365 2.5020163 5.26512223 3 9 C2.34 9 1.68 9 1 9 C1 8.01 1 7.02 1 6 C-0.65 6.33 -2.3 6.66 -4 7 C-2.68 4.69 -1.36 2.38 0 0 Z " fill="#2772C6" transform="translate(293,206)"/>
<path d="M0 0 C0.33 0.99 0.66 1.98 1 3 C-0.62339805 4.70884005 -2.29319053 6.37446717 -4 8 C-4.66 8 -5.32 8 -6 8 C-6 8.66 -6 9.32 -6 10 C-6.99 9.67 -7.98 9.34 -9 9 C-7.37660195 7.29115995 -5.70680947 5.62553283 -4 4 C-3.34 4 -2.68 4 -2 4 C-2 3.34 -2 2.68 -2 2 C-1.34 2 -0.68 2 0 2 C0 1.34 0 0.68 0 0 Z " fill="#544A77" transform="translate(291,117)"/>
<path d="M0 0 C0 0.66 0 1.32 0 2 C-1.65 2 -3.3 2 -5 2 C-5.33 2.99 -5.66 3.98 -6 5 C-6.33 5 -6.66 5 -7 5 C-7 3.35 -7 1.7 -7 0 C-4.3333581 -1.33332095 -2.83319697 -0.67102033 0 0 Z " fill="#73737B" transform="translate(313,360)"/>
<path d="M0 0 C2 2 2 2 2 6 C1.01 6.33 0.02 6.66 -1 7 C-1.99 6.34 -2.98 5.68 -4 5 C-2.68 3.35 -1.36 1.7 0 0 Z " fill="#BDBCC0" transform="translate(266,293)"/>
<path d="M0 0 C1.65 0.33 3.3 0.66 5 1 C4.67 2.32 4.34 3.64 4 5 C1.525 4.01 1.525 4.01 -1 3 C-0.67 2.01 -0.34 1.02 0 0 Z " fill="#F5F5F7" transform="translate(135,295)"/>
<path d="M0 0 C2.97 0.495 2.97 0.495 6 1 C4.35 2.65 2.7 4.3 1 6 C0.01 5.67 -0.98 5.34 -2 5 C-1.34 3.35 -0.68 1.7 0 0 Z " fill="#114489" transform="translate(312,190)"/>
<path d="M0 0 C3.96 0 7.92 0 12 0 C12 0.33 12 0.66 12 1 C9.69 1 7.38 1 5 1 C4.34 2.32 3.68 3.64 3 5 C2.01 3.35 1.02 1.7 0 0 Z " fill="#9A9AF5" transform="translate(289,147)"/>
<path d="M0 0 C0.66 0 1.32 0 2 0 C2 2.64 2 5.28 2 8 C1.01 8.33 0.02 8.66 -1 9 C-1.33 7.35 -1.66 5.7 -2 4 C-1.34 4 -0.68 4 0 4 C0 2.68 0 1.36 0 0 Z " fill="#5C5E61" transform="translate(273,359)"/>
<path d="M0 0 C0.99 0 1.98 0 3 0 C3.33 0.66 3.66 1.32 4 2 C6.52733235 2.65555119 6.52733235 2.65555119 9 3 C9 3.33 9 3.66 9 4 C5.37 4 1.74 4 -2 4 C-1.34 2.68 -0.68 1.36 0 0 Z " fill="#8861E2" transform="translate(297,338)"/>
<path d="M0 0 C1.0625 1.875 1.0625 1.875 2 4 C1.67 4.66 1.34 5.32 1 6 C0.34 6 -0.32 6 -1 6 C-1.33 6.99 -1.66 7.98 -2 9 C-2.99 7.68 -3.98 6.36 -5 5 C-3.68 5 -2.36 5 -1 5 C-0.67 3.35 -0.34 1.7 0 0 Z " fill="#3B2FA6" transform="translate(326,315)"/>
<path d="M0 0 C0.99 0 1.98 0 3 0 C3.33 1.98 3.66 3.96 4 6 C3.01 6 2.02 6 1 6 C0.34 5.01 -0.32 4.02 -1 3 C-0.67 2.01 -0.34 1.02 0 0 Z " fill="#783EF7" transform="translate(307,299)"/>
<path d="M0 0 C0.99 0 1.98 0 3 0 C3.33 0.99 3.66 1.98 4 3 C3.01 3.33 2.02 3.66 1 4 C1 4.66 1 5.32 1 6 C0.01 5.67 -0.98 5.34 -2 5 C-2 4.01 -2 3.02 -2 2 C-1.34 2 -0.68 2 0 2 C0 1.34 0 0.68 0 0 Z " fill="#56A9D3" transform="translate(212,240)"/>
<path d="M0 0 C-1.44077046 3.36179774 -3.24750021 5.59156268 -6 8 C-6.66 8 -7.32 8 -8 8 C-6.48291727 4.46014029 -4.24676932 0 0 0 Z " fill="#35197A" transform="translate(219,140)"/>
<path d="M0 0 C0.66 0.33 1.32 0.66 2 1 C0.02 3.97 0.02 3.97 -2 7 C-3.32 6.67 -4.64 6.34 -6 6 C-4.02 4.02 -2.04 2.04 0 0 Z " fill="#6B48B1" transform="translate(201,121)"/>
<path d="M0 0 C1.65 0 3.3 0 5 0 C4.01 0.495 4.01 0.495 3 1 C3.33 1.99 3.66 2.98 4 4 C0.25 5.125 0.25 5.125 -2 4 C-1.34 2.68 -0.68 1.36 0 0 Z " fill="#3DBAFB" transform="translate(224,235)"/>
<path d="M0 0 C2.64 0 5.28 0 8 0 C8 0.66 8 1.32 8 2 C5.69 2.33 3.38 2.66 1 3 C0.67 2.01 0.34 1.02 0 0 Z " fill="#A767F2" transform="translate(255,107)"/>
<path d="M0 0 C0.33 0.66 0.66 1.32 1 2 C2.98 1.67 4.96 1.34 7 1 C7 2.32 7 3.64 7 5 C6.236875 4.835 5.47375 4.67 4.6875 4.5 C1.96403764 3.90854604 1.96403764 3.90854604 -1 4 C-0.67 2.68 -0.34 1.36 0 0 Z " fill="#56575C" transform="translate(167,363)"/>
<path d="M0 0 C-0.56371414 3.26954202 -1.49962266 4.82575883 -4 7 C-5 4 -5 4 -4 1 C-2 0 -2 0 0 0 Z " fill="#717177" transform="translate(328,361)"/>
<path d="M0 0 C2 3 2 3 2 6 C0 7.6875 0 7.6875 -2 9 C-2.33 7.68 -2.66 6.36 -3 5 C-2.01 4.67 -1.02 4.34 0 4 C0 2.68 0 1.36 0 0 Z " fill="#B9B9BD" transform="translate(205,309)"/>
<path d="M0 0 C1.67542976 0.28604898 3.34385343 0.61781233 5 1 C4.34 2.32 3.68 3.64 3 5 C2.01 5 1.02 5 0 5 C-0.5625 3.0625 -0.5625 3.0625 -1 1 C-0.67 0.67 -0.34 0.34 0 0 Z " fill="#63ACD1" transform="translate(341,302)"/>
<path d="M0 0 C0.6875 1.8125 0.6875 1.8125 1 4 C-0.3125 5.75 -0.3125 5.75 -2 7 C-2.66 7 -3.32 7 -4 7 C-3.43628586 3.73045798 -2.50037734 2.17424117 0 0 Z " fill="#08366E" transform="translate(322,180)"/>
<path d="M0 0 C0.99 0.33 1.98 0.66 3 1 C1.68 3.64 0.36 6.28 -1 9 C-1.33 9 -1.66 9 -2 9 C-2.25 3.375 -2.25 3.375 0 0 Z " fill="#6A47DF" transform="translate(205,151)"/>
<path d="M0 0 C1.32 0 2.64 0 4 0 C3.67 1.32 3.34 2.64 3 4 C1.68 4.33 0.36 4.66 -1 5 C-0.67 3.35 -0.34 1.7 0 0 Z " fill="#676B72" transform="translate(204,363)"/>
<path d="M0 0 C1.65 0 3.3 0 5 0 C5.33 1.65 5.66 3.3 6 5 C5.01 5.33 4.02 5.66 3 6 C2.814375 5.071875 2.814375 5.071875 2.625 4.125 C2.12802644 1.80879168 2.12802644 1.80879168 0 0 Z " fill="#6F6F77" transform="translate(297,360)"/>
<path d="M0 0 C2.0625 0.4375 2.0625 0.4375 4 1 C3.625 3.4375 3.625 3.4375 3 6 C2.01 6.495 2.01 6.495 1 7 C0.34 5.02 -0.32 3.04 -1 1 C-0.67 0.67 -0.34 0.34 0 0 Z " fill="#DEDEE2" transform="translate(417,324)"/>
<path d="M0 0 C3.99996286 1.33332095 4.83782337 3.4957827 7 7 C5.35 6.67 3.7 6.34 2 6 C1.34 4.02 0.68 2.04 0 0 Z " fill="#9F9EA5" transform="translate(204,325)"/>
<path d="M0 0 C1.32 1.32 2.64 2.64 4 4 C2.68 4 1.36 4 0 4 C0 4.66 0 5.32 0 6 C-0.66 6 -1.32 6 -2 6 C-2.33 5.01 -2.66 4.02 -3 3 C-2.01 2.67 -1.02 2.34 0 2 C0 1.34 0 0.68 0 0 Z " fill="#3584C8" transform="translate(339,324)"/>
<path d="M0 0 C1.65 0 3.3 0 5 0 C4.67 0.99 4.34 1.98 4 3 C2.02 3.33 0.04 3.66 -2 4 C-1.34 2.68 -0.68 1.36 0 0 Z " fill="#7148BF" transform="translate(299,334)"/>
<path d="M0 0 C0.82638376 2.89234315 1 4.88742431 1 8 C-0.32 7.67 -1.64 7.34 -3 7 C-1.125 1.125 -1.125 1.125 0 0 Z " fill="#A19DA4" transform="translate(372,323)"/>
<path d="M0 0 C2.64752004 2.57784846 4.94432065 4.91648098 7 8 C6.01 8 5.02 8 4 8 C0 2.74285714 0 2.74285714 0 0 Z " fill="#42379D" transform="translate(319,307)"/>
<path d="M0 0 C0.99 0.99 1.98 1.98 3 3 C2.67 3.66 2.34 4.32 2 5 C1.34 4.67 0.68 4.34 0 4 C0.33 4.99 0.66 5.98 1 7 C0.01 7 -0.98 7 -2 7 C-1.34 4.69 -0.68 2.38 0 0 Z " fill="#F1F1F4" transform="translate(403,297)"/>
<path d="M0 0 C1.65 0.33 3.3 0.66 5 1 C5 2.65 5 4.3 5 6 C4.67 4.68 4.34 3.36 4 2 C2.35 2.66 0.7 3.32 -1 4 C-0.67 2.68 -0.34 1.36 0 0 Z " fill="#84848C" transform="translate(258,359)"/>
<path d="M0 0 C1.0625 1.8125 1.0625 1.8125 2 4 C1.67 4.99 1.34 5.98 1 7 C0.01 7 -0.98 7 -2 7 C-1.125 1.125 -1.125 1.125 0 0 Z " fill="#1866CA" transform="translate(302,201)"/>
<path d="M0 0 C0.66 0.33 1.32 0.66 2 1 C1.6875 2.875 1.6875 2.875 1 5 C0.01 5.66 -0.98 6.32 -2 7 C-2 5.35 -2 3.7 -2 2 C-1.34 2 -0.68 2 0 2 C0 1.34 0 0.68 0 0 Z " fill="#41A1F6" transform="translate(299,199)"/>
</svg>
